<svg width="427" height="427" viewBox="0 0 427 427" fill="none" xmlns="http://www.w3.org/2000/svg">
<mask id="mask0_85_2990" style="mask-type:alpha" maskUnits="userSpaceOnUse" x="0" y="0" width="427" height="427">
<circle cx="213.5" cy="213.5" r="213.5" fill="#C4C4C4"/>
</mask>
<g mask="url(#mask0_85_2990)">
<path opacity="0.1" d="M-15.2075 164.81C-15.2075 164.81 -22.7899 247.175 38.8137 313.221C100.417 379.267 194.755 399 270.904 417.01C347.052 435.021 411.397 401.436 428.431 337.27C445.465 273.104 389.269 244.025 366.775 163.99C344.28 83.9562 350.192 59.8231 288.589 2.61976C226.985 -54.5836 118.134 -43.9662 53.0752 25.5872C-11.9835 95.1406 -15.2075 164.81 -15.2075 164.81Z" fill="#EAB700"/>
<path opacity="0.1" d="M227.171 -30.5229C227.171 -30.5229 144.552 -34.4715 81.282 29.9802C18.0124 94.4318 2.4521 189.547 -12.1884 266.415C-26.8289 343.282 9.55619 406.086 74.4099 420.278C139.264 434.47 165.841 377.049 244.807 351.053C323.773 325.056 348.143 329.9 402.579 265.838C457.015 201.776 441.615 93.4974 369.265 31.5641C296.914 -30.3693 227.171 -30.5229 227.171 -30.5229Z" fill="#EAB700"/>
<g opacity="0.5">
<path d="M-10.5495 343.542C-7.71397 342.544 -3.01967 338.018 -2.6521 337.65C-0.06814 340.345 2.69298 342.864 5.61281 345.191C7.3036 346.545 9.0469 347.869 10.8637 349.171C9.96056 348.698 9.16242 348.278 9.0469 348.236C5.71783 346.934 -1.4549 346.377 -4.00684 349.475C-4.42332 350 -4.72359 350.607 -4.88775 351.256C-5.05191 351.905 -5.07621 352.582 -4.95904 353.241C-4.84186 353.901 -4.58589 354.528 -4.20809 355.081C-3.83029 355.634 -3.33929 356.1 -2.76762 356.449C-0.41522 358.013 3.03988 357.572 5.5498 356.68C8.05973 355.787 12.1869 352.006 13.2581 350.988C13.9407 351.481 14.6129 351.985 15.2955 352.468C18.5825 354.821 21.8801 357.152 25.0412 359.536C26.1543 360.376 27.215 361.248 28.2862 362.109C27.4881 361.689 26.816 361.342 26.7109 361.3C23.3819 359.998 16.2091 359.442 13.6572 362.54C13.2514 363.066 12.9611 363.673 12.8051 364.319C12.6491 364.965 12.631 365.637 12.7518 366.291C12.8727 366.945 13.1299 367.566 13.5066 368.114C13.8833 368.662 14.3712 369.124 14.9384 369.471C17.2908 371.025 20.7459 370.584 23.2558 369.702C25.7658 368.82 29.4939 365.386 30.7646 364.188C31.8148 365.102 32.865 366.016 33.9152 366.961C34.5768 367.612 35.2594 368.2 35.8895 368.893L37.7903 370.91C38.9455 372.222 40.1532 373.577 41.2454 374.9C42.0226 375.814 42.7367 376.686 43.4613 377.578C42.4111 376.728 40.1742 375.11 39.9852 374.995C36.8347 373.21 29.872 371.561 26.9 374.249C26.4187 374.707 26.0394 375.261 25.7867 375.875C25.534 376.49 25.4137 377.15 25.4335 377.814C25.4533 378.478 25.6128 379.13 25.9017 379.729C26.1906 380.327 26.6023 380.857 27.11 381.285C29.2104 383.176 32.6865 383.27 35.3014 382.777C38.1894 382.22 43.3248 378.628 43.9654 378.177C45.1521 379.647 46.3073 381.096 47.368 382.472C50.235 386.169 52.6189 389.456 54.4567 392.113L56.8091 390.874C54.8558 388.185 52.3143 384.804 49.2268 381.002C48.0191 379.5 46.6959 377.925 45.3306 376.318C46.6381 374.786 47.8515 373.176 48.9643 371.498C51.8102 372.548 57.6597 372.348 58.4159 372.327C58.6049 374.218 58.7624 376.045 58.8885 377.788C59.2245 382.315 59.3925 386.284 59.4871 389.466L62.039 388.112C61.8815 385.129 61.6399 381.579 61.2514 377.61C61.0728 375.688 60.8418 373.651 60.5792 371.55C61.3144 371.34 67.3529 369.576 69.5793 367.665C71.6166 365.932 73.717 363.159 73.549 360.313C73.5313 359.649 73.374 358.995 73.0872 358.396C72.8004 357.796 72.3906 357.263 71.8845 356.833C71.3783 356.402 70.7871 356.082 70.1493 355.895C69.5115 355.707 68.8414 355.656 68.1825 355.745C64.2444 356.386 61.1253 362.886 60.5898 366.415C60.5898 366.625 60.4637 368.925 60.4322 370.374C60.3272 369.523 60.2222 368.694 60.1067 367.812C59.8651 366.068 59.5816 364.336 59.2875 362.477C59.1125 361.588 58.934 360.684 58.7519 359.767C58.5944 358.854 58.3109 357.919 58.0903 356.984C57.5442 354.821 56.8721 352.668 56.158 350.505C57.6807 350.305 63.0787 349.454 65.3576 348.079C67.6365 346.703 70.1254 344.246 70.3879 341.442C70.4704 340.782 70.4135 340.113 70.2208 339.476C70.0281 338.84 69.704 338.252 69.2694 337.749C68.8348 337.246 68.2994 336.84 67.6979 336.557C67.0964 336.274 66.4422 336.121 65.7776 336.107C61.7869 336.107 57.7228 342.103 56.6516 345.558C56.5886 345.779 56.095 348.31 55.8534 349.706C55.4124 348.404 54.9818 347.113 54.4882 345.821C53.081 342.082 51.5267 338.344 50.0039 334.605L48.6282 331.171C49.1743 331.097 55.6119 330.268 58.1638 328.692C60.4322 327.285 62.9317 324.859 63.1837 322.055C63.2823 321.39 63.238 320.711 63.0538 320.064C62.8697 319.418 62.5499 318.817 62.1157 318.304C61.6816 317.79 61.143 317.375 60.5358 317.085C59.9286 316.796 59.2668 316.639 58.5944 316.626C54.5932 316.626 50.529 322.622 49.4683 326.025C49.3843 326.287 48.6912 329.932 48.5547 330.866C47.5045 328.346 46.5698 325.815 45.7087 323.294C44.5305 319.887 43.5728 316.407 42.8417 312.877C43.0937 312.877 49.8254 312.005 52.4403 310.388C54.6982 308.981 57.1977 306.555 57.4602 303.751C57.5443 303.092 57.4888 302.422 57.2974 301.786C57.106 301.15 56.7829 300.561 56.3491 300.058C55.9153 299.555 55.3805 299.149 54.7795 298.866C54.1784 298.583 53.5246 298.43 52.8604 298.416C48.8592 298.416 44.795 304.412 43.7344 307.815C43.6503 308.088 42.8942 312.016 42.8102 312.73C42.8102 312.52 42.7052 312.32 42.6632 312.11C42.0275 308.547 41.7077 304.934 41.7075 301.314C41.7075 299.319 41.7705 297.408 41.8965 295.549C43.1673 295.549 48.9643 295.339 51.4847 294.141C54.0051 292.944 56.6306 290.854 57.2082 288.092C57.3624 287.446 57.3793 286.775 57.2579 286.122C57.1365 285.469 56.8794 284.849 56.5033 284.302C56.1272 283.755 55.6404 283.292 55.0744 282.945C54.5084 282.597 53.8758 282.373 53.2175 282.285C49.2373 281.886 44.543 287.357 43.1042 290.634C43.0307 290.812 42.4321 292.734 42.0541 294.089C42.1276 293.259 42.1801 292.388 42.2641 291.59C42.5686 288.576 43.0412 285.845 43.4718 283.419C43.7239 282.043 43.9864 280.815 44.2384 279.66C45.4777 278.977 50.403 276.194 52.0518 274.01C53.7006 271.825 55.1183 268.759 54.3412 266.007C54.1816 265.359 53.8869 264.752 53.4762 264.225C53.0655 263.699 52.5482 263.265 51.9581 262.953C51.3681 262.641 50.7187 262.457 50.0525 262.413C49.3863 262.369 48.7184 262.467 48.0926 262.699C44.375 264.169 42.7367 271.195 42.9677 274.755C42.9677 275.07 43.8604 279.849 43.9234 279.807H43.9969C43.7344 280.909 43.4613 282.096 43.1883 283.409C42.7052 285.824 42.1381 288.555 41.802 291.569C41.3629 294.81 41.1139 298.075 41.0564 301.346C40.9757 305.011 41.2217 308.677 41.7915 312.299C41.7915 312.299 41.7915 312.383 41.7915 312.425C41.2664 311.375 39.6912 308.497 39.5441 308.298C37.4438 305.378 31.8043 300.947 27.9922 302.133C27.3645 302.349 26.7893 302.695 26.3038 303.147C25.8183 303.6 25.4334 304.15 25.1739 304.761C24.9145 305.372 24.7864 306.03 24.7979 306.694C24.8094 307.358 24.9602 308.011 25.2407 308.613C26.3434 311.207 29.4414 312.751 32.0564 313.402C34.9759 314.126 41.382 312.94 41.8965 312.845C42.5625 316.515 43.4747 320.136 44.627 323.683C45.2886 325.783 46.0132 327.821 46.7274 329.879C46.2443 328.986 45.8032 328.199 45.7297 328.094C43.6293 325.174 37.9899 320.743 34.1777 321.929C33.5501 322.145 32.9749 322.491 32.4894 322.943C32.0039 323.396 31.6189 323.946 31.3595 324.557C31.1001 325.167 30.972 325.826 30.9835 326.49C30.9949 327.153 31.1458 327.807 31.4262 328.409C32.5289 331.013 35.627 332.547 38.2314 333.198C40.8359 333.849 46.3493 332.956 47.7986 332.694C48.1031 333.481 48.3867 334.269 48.6912 335.056C50.13 338.837 51.5897 342.597 52.8919 346.325C53.354 347.638 53.7636 348.95 54.1837 350.263C53.7531 349.475 53.375 348.814 53.312 348.719C51.2116 345.8 45.5617 341.368 41.76 342.555C41.1315 342.77 40.5552 343.114 40.0685 343.567C39.5819 344.019 39.1958 344.568 38.9353 345.179C38.6748 345.79 38.5458 346.449 38.5566 347.113C38.5674 347.778 38.7178 348.432 38.998 349.034C40.1112 351.628 43.1988 353.172 45.8137 353.823C48.4287 354.474 53.396 353.655 55.1183 353.361C55.5069 354.716 55.8954 356.071 56.1685 357.404C56.3575 358.318 56.6096 359.19 56.7566 360.114C56.9036 361.038 57.0716 361.941 57.2292 362.834C57.4602 364.577 57.7228 366.373 57.9118 368.085C58.0483 369.271 58.1638 370.406 58.2794 371.54C57.8278 370.227 56.9036 367.675 56.7986 367.465C55.3053 364.713 53.1371 362.386 50.4975 360.702C50.3419 360.389 50.1592 360.09 49.9514 359.809C49.5702 359.265 49.0787 358.807 48.5088 358.465C47.939 358.123 47.3036 357.905 46.6439 357.825C45.9843 357.745 45.3151 357.804 44.6799 357.999C44.0448 358.195 43.4578 358.522 42.9572 358.959C40.0167 361.668 41.0144 368.809 42.5056 372.054C42.6002 372.243 43.7869 374.207 44.606 375.436C44.0389 374.785 43.5558 374.144 42.9152 373.483C41.76 372.159 40.5628 370.868 39.2921 369.481L37.3493 367.507C36.7191 366.845 35.963 366.215 35.2489 365.554C33.6001 364.062 31.8568 362.624 30.0715 361.227C31.2267 360.177 35.3224 356.554 36.3726 354.117C37.4228 351.681 38.2314 348.299 36.8977 345.81C36.6103 345.21 36.1991 344.677 35.6913 344.246C35.1834 343.815 34.5903 343.497 33.9507 343.311C33.3111 343.126 32.6396 343.078 31.9802 343.17C31.3207 343.262 30.6882 343.493 30.124 343.846C26.8055 346.083 26.7004 353.298 27.6876 356.732C27.7506 356.942 28.7378 359.326 29.3049 360.618C28.2547 359.788 27.2045 358.948 26.0283 358.139C22.7938 355.798 19.4332 353.529 16.1041 351.261L13.0586 349.16C13.4787 348.803 18.383 344.561 19.6432 341.809C20.7564 339.383 21.502 335.991 20.1683 333.502C19.8738 332.913 19.4593 332.393 18.9513 331.974C18.4434 331.555 17.8534 331.247 17.2193 331.07C16.5851 330.893 15.9209 330.85 15.2695 330.946C14.618 331.041 13.9936 331.271 13.4367 331.622C10.1181 333.849 10.0131 341.074 11.0107 344.498C11.0843 344.75 12.5125 348.184 12.9116 349.034C10.6852 347.48 8.4798 345.884 6.35844 344.288C3.49209 342.099 0.769968 339.728 -1.79096 337.188C-1.60192 337.02 3.55446 332.61 4.83568 329.837C5.94887 327.422 6.705 324.019 5.37127 321.53C5.07692 320.934 4.6605 320.407 4.14909 319.983C3.63768 319.559 3.04271 319.247 2.40287 319.068C1.76303 318.888 1.09262 318.846 0.435221 318.942C-0.222179 319.039 -0.851854 319.273 -1.41289 319.629C-4.73146 321.866 -4.83648 329.081 -3.83881 332.505C-3.7653 332.778 -2.22153 336.464 -1.89597 337.104L-2.35806 336.674C-4.85812 334.057 -7.11808 331.22 -9.11071 328.199C-10.2344 326.54 -11.2111 324.901 -12.1352 323.284C-11.0851 322.559 -6.35924 319.199 -4.92049 316.815C-3.48174 314.431 -2.43157 311.238 -3.48175 308.623C-3.7077 307.998 -4.06273 307.428 -4.52376 306.949C-4.98479 306.47 -5.54148 306.093 -6.15763 305.844C-6.77377 305.594 -7.43556 305.477 -8.09996 305.5C-8.76435 305.523 -9.41646 305.685 -10.0139 305.977C-13.553 307.836 -14.4456 314.998 -13.8365 318.516C-13.8365 318.705 -13.2589 320.617 -12.7863 321.992C-13.1854 321.257 -13.616 320.501 -13.9835 319.787C-15.3908 317.109 -16.5145 314.536 -17.4912 312.32C-18.0267 311.028 -18.5413 309.852 -18.9194 308.749C-18.2683 307.51 -15.6953 302.448 -15.5273 299.739C-15.3593 297.029 -15.9684 293.616 -18.0687 291.779C-18.5574 291.328 -19.1353 290.986 -19.7651 290.773C-20.3948 290.561 -21.0622 290.483 -21.7238 290.545C-22.3855 290.608 -23.0266 290.809 -23.6055 291.135C-24.1844 291.462 -24.6882 291.906 -25.084 292.44C-27.3733 295.717 -24.8634 302.48 -22.7 305.326C-22.511 305.578 -19.1504 309.075 -19.1189 309.012V308.939C-18.7304 309.989 -18.2998 311.154 -17.8167 312.394C-16.882 314.672 -15.8109 317.245 -14.4666 319.965C-13.0362 322.914 -11.4337 325.775 -9.66731 328.535C-7.71382 331.635 -5.48922 334.555 -3.01966 337.262L-2.92515 337.356C-3.97533 336.768 -6.84233 335.256 -7.12587 335.151C-10.4549 333.849 -17.6277 333.292 -20.1691 336.39C-20.5751 336.915 -20.866 337.52 -21.0227 338.165C-21.1794 338.81 -21.1984 339.481 -21.0785 340.134C-20.9586 340.787 -20.7025 341.407 -20.3269 341.955C-19.9512 342.502 -19.4645 342.964 -18.8984 343.311C-16.5145 344.897 -13.0699 344.435 -10.5495 343.542Z" fill="#333333"/>
<path d="M41.3719 294.972C41.4454 294.972 40.3217 290.246 40.2167 289.952C39.009 286.591 34.6928 280.815 30.6916 280.952C30.0294 280.995 29.3837 281.177 28.7962 281.486C28.2087 281.795 27.6924 282.223 27.2807 282.744C26.8691 283.264 26.5711 283.865 26.4061 284.508C26.2411 285.151 26.2128 285.821 26.3228 286.476C26.7114 289.28 29.3054 291.59 31.6368 292.892C34.3672 294.425 41.3614 294.972 41.3719 294.972Z" fill="#333333"/>
<path d="M449.44 343.542C446.605 342.544 441.91 338.018 441.532 337.65C438.951 340.347 436.19 342.867 433.267 345.19C431.577 346.545 429.833 347.868 428.069 349.171C428.962 348.698 429.77 348.278 429.886 348.236C433.215 346.934 440.388 346.377 442.929 349.475C443.335 350.001 443.625 350.606 443.781 351.252C443.937 351.897 443.955 352.569 443.834 353.222C443.713 353.875 443.456 354.495 443.079 355.042C442.702 355.589 442.215 356.05 441.648 356.396C439.295 357.961 435.851 357.52 433.33 356.627C430.81 355.734 426.693 351.954 425.633 350.935L423.585 352.416C420.298 354.768 417.011 357.099 413.85 359.483C412.736 360.323 411.665 361.195 410.594 362.056C411.392 361.636 412.064 361.29 412.18 361.248C415.498 359.945 422.682 359.389 425.223 362.487C425.629 363.014 425.919 363.62 426.075 364.266C426.231 364.912 426.249 365.584 426.128 366.238C426.007 366.892 425.75 367.513 425.374 368.061C424.997 368.609 424.509 369.071 423.942 369.418C421.589 370.972 418.134 370.531 415.624 369.649C413.114 368.767 409.386 365.333 408.116 364.136C407.065 365.049 406.015 365.963 404.965 366.908C404.293 367.559 403.61 368.147 402.98 368.84C402.35 369.534 401.709 370.185 401.09 370.857C399.924 372.17 398.727 373.524 397.624 374.847C396.858 375.761 396.133 376.633 395.408 377.525C396.511 376.675 398.695 375.057 398.895 374.942C401.983 373.157 409.008 371.508 411.97 374.196C412.451 374.654 412.83 375.208 413.083 375.823C413.336 376.437 413.456 377.097 413.436 377.761C413.416 378.425 413.257 379.078 412.968 379.676C412.679 380.274 412.267 380.804 411.76 381.233C409.659 383.123 406.194 383.217 403.568 382.724C400.691 382.167 395.555 378.576 394.915 378.124C393.718 379.594 392.573 381.044 391.502 382.419C388.645 386.116 386.251 389.403 384.413 392.06L382.05 390.821C384.003 388.132 386.555 384.751 389.632 380.949C390.84 379.447 392.163 377.872 393.539 376.265C392.23 374.732 391.014 373.122 389.895 371.445C387.049 372.495 381.199 372.296 380.443 372.275C380.265 374.165 380.097 375.992 379.971 377.735C379.635 382.262 379.467 386.231 379.383 389.413L376.82 388.059C376.978 385.076 377.23 381.527 377.608 377.557C377.797 375.635 378.028 373.598 378.28 371.497C377.545 371.287 371.517 369.523 369.28 367.612C367.253 365.879 365.153 363.106 365.321 360.26C365.337 359.596 365.493 358.943 365.779 358.344C366.064 357.744 366.473 357.211 366.978 356.78C367.484 356.349 368.074 356.029 368.712 355.842C369.349 355.654 370.018 355.603 370.677 355.692C374.625 356.333 377.734 362.833 378.269 366.362C378.269 366.572 378.395 368.872 378.427 370.321C378.542 369.471 378.637 368.641 378.763 367.759C378.994 366.015 379.278 364.283 379.582 362.424C379.75 361.531 379.929 360.628 380.107 359.714C380.286 358.801 380.548 357.866 380.769 356.931C381.325 354.768 381.987 352.615 382.701 350.452C381.178 350.252 375.781 349.402 373.502 348.026C371.223 346.65 368.734 344.193 368.482 341.389C368.398 340.73 368.453 340.06 368.645 339.424C368.836 338.788 369.159 338.199 369.593 337.696C370.027 337.193 370.561 336.787 371.162 336.504C371.764 336.221 372.417 336.068 373.082 336.054C377.083 336.054 381.147 342.05 382.208 345.505C382.281 345.726 382.764 348.257 383.006 349.654C383.447 348.351 383.888 347.06 384.371 345.768C385.789 342.029 387.333 338.291 388.855 334.552C389.328 333.407 389.779 332.263 390.231 331.118C389.695 331.044 383.247 330.215 380.695 328.64C378.437 327.232 375.938 324.806 375.675 322.002C375.591 321.343 375.647 320.674 375.838 320.038C376.03 319.402 376.353 318.813 376.787 318.31C377.22 317.807 377.755 317.401 378.356 317.118C378.957 316.835 379.611 316.681 380.275 316.667C384.276 316.667 388.341 322.664 389.412 326.067C389.485 326.329 390.189 329.973 390.315 330.908C391.365 328.387 392.3 325.857 393.172 323.336C394.354 319.929 395.315 316.449 396.049 312.918C395.797 312.918 389.076 312.047 386.461 310.429C384.192 309.022 381.693 306.596 381.43 303.792C381.348 303.133 381.405 302.463 381.598 301.827C381.79 301.191 382.114 300.602 382.549 300.099C382.984 299.596 383.519 299.19 384.121 298.908C384.722 298.625 385.376 298.471 386.041 298.457C390.042 298.457 394.096 304.454 395.167 307.856C395.251 308.13 395.996 312.057 396.08 312.771C396.08 312.561 396.196 312.362 396.228 312.152C396.868 308.589 397.188 304.976 397.183 301.356C397.183 299.361 397.12 297.449 396.994 295.59C395.723 295.59 389.926 295.38 387.417 294.183C384.907 292.986 382.26 290.896 381.693 288.134C381.537 287.488 381.519 286.816 381.64 286.163C381.76 285.509 382.017 284.888 382.394 284.341C382.77 283.793 383.258 283.33 383.824 282.983C384.391 282.636 385.025 282.413 385.684 282.327C389.664 281.928 394.358 287.399 395.786 290.676C395.87 290.854 396.459 292.776 396.837 294.131C396.763 293.301 396.711 292.429 396.627 291.631C396.322 288.617 395.86 285.887 395.419 283.461C395.167 282.085 394.904 280.856 394.652 279.701C393.424 279.019 388.498 276.236 386.849 274.051C385.201 271.867 383.783 268.8 384.55 266.049C384.71 265.404 385.004 264.801 385.412 264.277C385.821 263.754 386.335 263.322 386.921 263.01C387.507 262.698 388.153 262.513 388.815 262.466C389.478 262.42 390.143 262.513 390.767 262.741C394.484 264.211 396.123 271.237 395.891 274.797C395.891 275.112 394.999 279.89 394.936 279.848H394.862C395.125 280.951 395.408 282.138 395.681 283.45C396.165 285.866 396.732 288.596 397.068 291.61C397.503 294.852 397.749 298.117 397.803 301.387C397.887 305.053 397.645 308.718 397.078 312.341V312.467C397.603 311.417 399.179 308.539 399.326 308.34C401.426 305.42 407.065 300.988 410.878 302.175C411.506 302.39 412.082 302.734 412.569 303.187C413.055 303.639 413.441 304.189 413.701 304.8C413.96 305.412 414.088 306.071 414.076 306.735C414.063 307.399 413.911 308.053 413.629 308.655C412.526 311.249 409.428 312.792 406.824 313.443C403.904 314.168 397.488 312.981 396.973 312.887C396.307 316.557 395.395 320.177 394.243 323.725C393.581 325.825 392.856 327.862 392.142 329.921C392.625 329.028 393.066 328.24 393.14 328.135C395.24 325.216 400.89 320.784 404.692 321.971C405.321 322.186 405.897 322.531 406.383 322.983C406.87 323.435 407.256 323.984 407.517 324.595C407.777 325.206 407.906 325.865 407.895 326.53C407.885 327.194 407.734 327.848 407.454 328.45C406.341 331.055 403.253 332.588 400.638 333.239C398.023 333.89 392.52 332.998 391.071 332.735L390.189 335.098C388.74 338.879 387.28 342.638 385.988 346.367C385.526 347.679 385.117 348.992 384.707 350.305C385.138 349.517 385.505 348.855 385.568 348.761C387.669 345.841 393.319 341.41 397.12 342.596C397.748 342.812 398.323 343.158 398.809 343.611C399.294 344.063 399.679 344.613 399.938 345.224C400.198 345.835 400.326 346.493 400.314 347.157C400.303 347.821 400.152 348.474 399.872 349.076C398.758 351.67 395.671 353.214 393.056 353.865C390.441 354.516 385.474 353.697 383.751 353.403C383.373 354.758 382.985 356.112 382.701 357.446C382.512 358.36 382.26 359.231 382.124 360.155C381.987 361.08 381.809 361.983 381.651 362.875C381.409 364.619 381.157 366.415 380.968 368.126C380.821 369.313 380.706 370.447 380.59 371.581C381.042 370.269 381.977 367.717 382.071 367.507C383.544 364.721 385.706 362.36 388.351 360.649C388.499 360.332 388.682 360.032 388.897 359.756C389.277 359.212 389.768 358.755 390.337 358.413C390.906 358.071 391.54 357.853 392.199 357.773C392.858 357.692 393.526 357.752 394.161 357.947C394.795 358.142 395.381 358.469 395.881 358.906C398.821 361.615 397.834 368.756 396.333 372.001C396.238 372.191 395.051 374.154 394.232 375.383C394.799 374.732 395.345 374.091 395.933 373.43C397.089 372.107 398.275 370.815 399.557 369.429L401.489 367.454C402.13 366.793 402.886 366.162 403.589 365.501C405.238 364.01 406.981 362.571 408.777 361.174C407.622 360.124 403.526 356.501 402.476 354.064C401.426 351.628 400.607 348.246 401.941 345.757C402.234 345.161 402.65 344.633 403.161 344.207C403.672 343.782 404.266 343.469 404.906 343.289C405.546 343.108 406.217 343.065 406.875 343.161C407.533 343.257 408.163 343.49 408.725 343.846C412.043 346.083 412.138 353.298 411.151 356.732C411.088 356.942 410.1 359.326 409.533 360.618C410.584 359.788 411.686 358.948 412.81 358.139C416.055 355.797 419.405 353.529 422.745 351.26L425.78 349.16C425.37 348.803 420.455 344.56 419.195 341.809C418.082 339.383 417.336 335.991 418.67 333.502C418.963 332.905 419.379 332.377 419.89 331.951C420.401 331.526 420.997 331.214 421.637 331.034C422.277 330.855 422.948 330.813 423.606 330.91C424.264 331.008 424.893 331.243 425.454 331.601C428.762 333.827 428.867 341.053 427.88 344.476C427.806 344.728 426.378 348.162 425.969 349.013C428.206 347.459 430.411 345.862 432.522 344.266C435.39 342.08 438.113 339.709 440.671 337.167C440.482 336.999 435.336 332.588 434.045 329.816C432.931 327.4 432.186 323.998 433.519 321.509C433.813 320.913 434.228 320.386 434.739 319.962C435.249 319.538 435.843 319.226 436.482 319.047C437.121 318.867 437.791 318.825 438.447 318.921C439.104 319.018 439.733 319.252 440.293 319.608C443.612 321.845 443.717 329.06 442.719 332.483C442.645 332.756 441.112 336.442 440.787 337.083L441.249 336.652C443.742 334.032 445.999 331.196 447.991 328.177C449.115 326.518 450.091 324.88 451.015 323.263C449.965 322.538 445.239 319.177 443.811 316.793C442.383 314.41 441.322 311.217 442.372 308.602C442.598 307.977 442.953 307.406 443.414 306.927C443.875 306.448 444.432 306.072 445.048 305.822C445.664 305.573 446.326 305.455 446.991 305.478C447.655 305.501 448.307 305.664 448.905 305.956C452.444 307.814 453.336 314.977 452.727 318.495C452.727 318.684 452.139 320.595 451.677 321.971C452.076 321.236 452.507 320.48 452.885 319.766C454.292 317.088 455.405 314.515 456.382 312.299C456.928 311.007 457.432 309.831 457.821 308.728C457.159 307.489 454.597 302.427 454.418 299.718C454.239 297.008 454.786 293.616 456.917 291.778C457.406 291.328 457.984 290.985 458.614 290.773C459.243 290.56 459.911 290.483 460.573 290.545C461.234 290.607 461.875 290.808 462.454 291.135C463.033 291.461 463.537 291.906 463.933 292.44C466.222 295.716 463.712 302.48 461.559 305.326C461.37 305.578 457.999 309.075 457.968 309.012V308.938C457.59 309.988 457.159 311.154 456.665 312.393C455.741 314.672 454.67 317.245 453.315 319.965C451.892 322.913 450.296 325.774 448.537 328.535C446.591 331.639 444.366 334.56 441.889 337.262L441.795 337.356C442.845 336.768 445.712 335.256 445.996 335.151C449.314 333.848 456.497 333.292 459.039 336.39C459.444 336.916 459.735 337.521 459.89 338.167C460.046 338.812 460.064 339.483 459.944 340.136C459.823 340.789 459.566 341.409 459.189 341.956C458.812 342.503 458.325 342.965 457.758 343.311C455.405 344.896 451.95 344.434 449.44 343.542Z" fill="#333333"/>
<path d="M397.519 294.972C397.446 294.972 398.569 290.246 398.664 289.952C399.872 286.591 404.198 280.815 408.189 280.952C408.852 280.994 409.499 281.175 410.087 281.483C410.675 281.791 411.192 282.219 411.604 282.74C412.016 283.261 412.314 283.863 412.478 284.507C412.643 285.15 412.67 285.821 412.558 286.476C412.18 289.28 409.575 291.59 407.254 292.892C404.524 294.425 397.519 294.972 397.519 294.972Z" fill="#333333"/>
</g>
<path d="M63.1506 261.229L212.243 177.314L364.988 261.229V382.88H64.9869L63.1506 261.229Z" fill="#333333" stroke="#333333" stroke-linecap="round" stroke-linejoin="round"/>
<path d="M325.668 199.949H102.489V398.432H325.668V199.949Z" fill="white" stroke="#333333" stroke-miterlimit="10"/>
<path d="M128.24 234.845H178.311" stroke="#EAB700" stroke-width="2" stroke-miterlimit="10"/>
<path d="M128.094 252.086H297.31" stroke="#333333" stroke-miterlimit="10"/>
<path d="M128.094 269.464H297.31" stroke="#EAB700" stroke-miterlimit="10"/>
<path d="M128.094 286.843H297.31" stroke="#333333" stroke-miterlimit="10"/>
<path d="M128.094 304.222H297.31" stroke="#333333" stroke-miterlimit="10"/>
<path d="M128.094 321.601H297.31" stroke="#333333" stroke-miterlimit="10"/>
<path d="M364.988 428.618H63.1506V261.229L214.079 363.675L364.988 261.229V428.618Z" fill="#EAB700" stroke="#333333" stroke-miterlimit="10"/>
<path d="M63.1506 428.618L172.894 335.672" stroke="#333333" stroke-miterlimit="10"/>
<path d="M364.51 428.618L255.581 335.522" stroke="#333333" stroke-miterlimit="10"/>
</g>
</svg>
