<svg width="439" height="439" viewBox="0 0 439 439" fill="none" xmlns="http://www.w3.org/2000/svg">
<mask id="mask0_188_364" style="mask-type:alpha" maskUnits="userSpaceOnUse" x="0" y="0" width="439" height="439">
<circle cx="219.5" cy="219.5" r="219.5" fill="#C4C4C4"/>
</mask>
<g mask="url(#mask0_188_364)">
<g filter="url(#filter0_d_188_364)">
<path opacity="0.1" d="M572.188 323.872C575.172 284.223 565.95 242.829 553.595 205.986C535.315 151.132 499.621 94.9197 439.633 81.9373C405.044 74.4762 369.842 82.4745 340.177 101.217C311.66 119.243 289.441 142.537 254.359 147.043C218.889 151.609 182.493 149.774 146.844 149.774C55.1765 149.774 -19.211 246.067 -0.617839 346.375C17.9753 446.682 105.658 516.235 180.046 516.235C246.898 516.235 301.901 476.138 365.395 465.365C396.881 460.022 428.501 466.349 459.659 458.351C495.875 449.04 529.928 426.85 549.998 394.723C563.667 372.817 570.323 348.687 572.188 323.872Z" fill="#EAB700"/>
<path opacity="0.1" d="M601.267 250.57C605.441 195.187 592.544 137.366 575.264 85.9021C549.7 9.27961 499.781 -69.2397 415.888 -87.374C367.514 -97.796 318.284 -86.6236 276.797 -60.4435C236.916 -35.264 205.842 -2.72653 156.779 3.56836C107.174 9.94662 56.2744 7.3828 6.41849 7.3828C-121.779 7.3828 -225.811 141.889 -199.809 282.002C-173.806 422.116 -51.1798 519.27 52.8519 519.27C146.345 519.27 223.268 463.262 312.065 448.212C356.099 440.75 400.32 449.588 443.894 438.416C494.543 425.409 542.166 394.414 570.235 349.537C589.351 318.938 598.659 285.233 601.267 250.57Z" fill="#EAB700"/>
</g>
<g opacity="0.5">
<path d="M35.6139 334.534C39.8475 334.156 48.0042 329.327 48.0183 329.327C48.0324 329.327 43.2782 324.748 42.9355 324.492C39.0388 321.643 29.8658 318.359 25.5308 321.626C24.8244 322.188 24.2414 322.897 23.8198 323.706C23.3983 324.515 23.1476 325.407 23.0843 326.323C23.0209 327.238 23.1463 328.158 23.4522 329.02C23.758 329.883 24.2376 330.67 24.8594 331.33C27.4006 334.241 32.0434 334.845 35.6139 334.534Z" fill="#071B49"/>
<path d="M51.574 357.607C55.3692 356.175 61.5975 349.834 62.0849 349.32C65.6123 352.995 69.3746 356.424 73.3467 359.584C75.6469 361.425 78.0173 363.221 80.486 364.986C79.2621 364.35 78.1805 363.784 78.0243 363.728C73.5212 361.991 63.862 361.355 60.4883 365.683C59.9381 366.415 59.5457 367.26 59.3373 368.16C59.1289 369.06 59.1091 369.995 59.2793 370.904C59.4495 371.813 59.8058 372.674 60.3245 373.431C60.8433 374.188 61.5127 374.824 62.2883 375.295C65.4826 377.413 70.1219 376.739 73.4812 375.459C76.8405 374.18 82.3201 368.879 83.7416 367.452C84.6693 368.121 85.583 368.805 86.5105 369.46C90.9771 372.649 95.4574 375.809 99.7551 379.044C101.269 380.184 102.712 381.369 104.169 382.539C103.088 381.973 102.177 381.507 102.035 381.451C97.5319 379.713 87.8726 379.078 84.4989 383.405C83.9632 384.141 83.5842 384.984 83.3867 385.88C83.1892 386.776 83.1776 387.704 83.3527 388.605C83.5277 389.507 83.8855 390.36 84.4027 391.11C84.92 391.86 85.585 392.49 86.3547 392.958C89.5488 395.062 94.1881 394.388 97.5476 393.123C100.907 391.858 105.857 387.043 107.543 385.366C108.973 386.609 110.403 387.851 111.834 389.138C112.736 390.025 113.666 390.825 114.527 391.771L117.122 394.522C118.701 396.314 120.352 398.163 121.846 399.971C122.909 401.219 123.886 402.41 124.878 403.63C123.449 402.474 120.409 400.281 120.153 400.125C115.88 397.717 106.483 395.568 102.536 399.338C101.898 399.98 101.398 400.752 101.07 401.606C100.742 402.459 100.592 403.374 100.632 404.291C100.671 405.208 100.898 406.106 101.298 406.927C101.698 407.748 102.262 408.474 102.953 409.056C105.815 411.629 110.492 411.695 114.001 410.964C117.875 410.142 124.714 405.084 125.567 404.448C127.192 406.457 128.773 408.438 130.226 410.319C134.154 415.373 137.423 419.871 139.946 423.508L143.087 421.752C140.408 418.074 136.925 413.449 132.699 408.253C131.046 406.201 129.236 404.049 127.368 401.854C129.098 399.713 130.699 397.467 132.164 395.126C136.013 396.525 143.878 396.14 144.894 396.097C145.185 398.705 145.431 401.227 145.634 403.634C146.173 409.881 146.474 415.363 146.662 419.758L150.069 417.839C149.8 413.721 149.408 408.821 148.809 403.343C148.532 400.691 148.183 397.88 147.79 394.983C148.774 394.679 156.864 392.129 159.822 389.447C162.53 387.015 165.302 383.146 165.022 379.216C164.985 378.299 164.761 377.399 164.364 376.575C163.967 375.752 163.405 375.024 162.716 374.438C162.027 373.852 161.226 373.422 160.364 373.175C159.503 372.927 158.6 372.869 157.716 373.004C152.43 373.963 148.359 383.002 147.706 387.888C147.71 388.178 147.584 391.358 147.569 393.361C147.412 392.187 147.255 391.043 147.082 389.826C146.724 387.422 146.31 385.033 145.879 382.47C145.626 381.245 145.369 380.001 145.107 378.737C144.877 377.477 144.478 376.191 144.163 374.904C143.388 371.925 142.442 368.963 141.44 365.987C143.485 365.683 150.73 364.408 153.769 362.464C156.809 360.521 160.11 357.08 160.409 353.2C160.508 352.288 160.418 351.364 160.147 350.488C159.876 349.613 159.428 348.806 158.834 348.119C158.24 347.432 157.512 346.881 156.697 346.501C155.883 346.122 155 345.922 154.106 345.915C148.738 345.989 143.385 354.35 142.01 359.144C141.929 359.45 141.314 362.956 141.016 364.89C140.397 363.099 139.794 361.322 139.105 359.547C137.141 354.407 134.978 349.271 132.859 344.133L130.943 339.414C131.676 339.302 140.32 338.036 143.722 335.812C146.747 333.826 150.063 330.428 150.348 326.549C150.468 325.628 150.396 324.691 150.136 323.8C149.876 322.91 149.434 322.087 148.84 321.385C148.246 320.683 147.514 320.12 146.692 319.731C145.869 319.343 144.976 319.139 144.071 319.132C138.689 319.207 133.336 327.567 131.974 332.288C131.866 332.653 131.004 337.701 130.838 338.995C129.377 335.532 128.071 332.052 126.865 328.586C125.215 323.899 123.86 319.109 122.809 314.245C123.149 314.24 132.187 312.911 135.674 310.628C138.684 308.641 142 305.243 142.3 301.364C142.4 300.452 142.313 299.528 142.043 298.653C141.774 297.777 141.328 296.97 140.735 296.283C140.142 295.596 139.414 295.044 138.601 294.665C137.787 294.285 136.904 294.085 136.01 294.078C130.628 294.153 125.276 302.513 123.914 307.234C123.806 307.613 122.864 313.054 122.764 314.042C122.76 313.752 122.615 313.478 122.555 313.189C121.632 308.277 121.132 303.292 121.063 298.29C121.025 295.533 121.073 292.891 121.207 290.321C122.917 290.297 130.711 289.899 134.078 288.198C137.446 286.497 140.938 283.561 141.662 279.734C141.857 278.839 141.867 277.911 141.691 277.011C141.515 276.111 141.158 275.259 140.641 274.51C140.125 273.761 139.461 273.131 138.693 272.661C137.925 272.192 137.07 271.893 136.183 271.784C130.821 271.307 124.611 278.954 122.738 283.508C122.643 283.756 121.874 286.422 121.391 288.301C121.474 287.153 121.528 285.948 121.626 284.844C121.978 280.674 122.562 276.892 123.095 273.532C123.408 271.627 123.737 269.924 124.054 268.323C125.708 267.357 132.281 263.421 134.457 260.372C136.633 257.323 138.482 253.06 137.384 249.273C137.157 248.38 136.749 247.546 136.186 246.827C135.624 246.107 134.919 245.518 134.12 245.097C133.32 244.676 132.443 244.434 131.546 244.386C130.649 244.338 129.753 244.485 128.915 244.818C123.942 246.919 121.873 256.656 122.251 261.571C122.257 262.006 123.549 268.592 123.633 268.532L123.732 268.531C123.4 270.06 123.055 271.704 122.713 273.523C122.109 276.869 121.399 280.653 121.004 284.823C120.475 289.31 120.203 293.826 120.188 298.346C120.149 303.412 120.55 308.472 121.386 313.466C121.386 313.466 121.387 313.582 121.388 313.64C120.662 312.199 118.488 308.253 118.286 307.98C115.405 303.985 107.734 297.967 102.629 299.677C101.789 299.987 101.022 300.475 100.377 301.11C99.7329 301.744 99.2256 302.51 98.8882 303.359C98.5509 304.208 98.3911 305.121 98.4193 306.038C98.4474 306.954 98.6628 307.855 99.0515 308.681C100.584 312.244 104.781 314.32 108.311 315.171C112.252 316.118 120.847 314.359 121.537 314.219C122.503 319.277 123.8 324.263 125.417 329.143C126.347 332.032 127.361 334.834 128.361 337.665C127.694 336.44 127.086 335.36 126.985 335.216C124.104 331.222 116.433 325.203 111.328 326.914C110.487 327.224 109.72 327.712 109.076 328.346C108.431 328.981 107.924 329.747 107.587 330.596C107.249 331.445 107.09 332.357 107.118 333.274C107.146 334.191 107.361 335.091 107.75 335.917C109.283 339.495 113.48 341.556 116.996 342.408C120.512 343.259 127.911 341.923 129.856 341.533C130.28 342.616 130.677 343.699 131.101 344.782C133.109 349.978 135.144 355.146 136.967 360.273C137.614 362.078 138.19 363.884 138.78 365.69C138.186 364.61 137.665 363.703 137.578 363.573C134.697 359.579 127.012 353.56 121.921 355.271C121.079 355.579 120.311 356.066 119.665 356.7C119.019 357.334 118.51 358.1 118.171 358.949C117.832 359.798 117.671 360.711 117.699 361.629C117.726 362.546 117.941 363.448 118.329 364.275C119.876 367.838 124.059 369.914 127.589 370.765C131.119 371.616 137.785 370.391 140.096 369.953C140.645 371.818 141.194 373.682 141.586 375.52C141.858 376.779 142.214 377.979 142.429 379.253C142.645 380.527 142.888 381.772 143.117 383.002C143.461 385.406 143.848 387.883 144.135 390.244C144.341 391.882 144.519 393.447 144.696 395.011C144.063 393.206 142.771 389.697 142.626 389.409C140.565 385.634 137.604 382.459 134.021 380.182C133.805 379.752 133.554 379.343 133.269 378.958C132.746 378.213 132.076 377.59 131.303 377.128C130.53 376.666 129.671 376.377 128.782 376.278C127.893 376.18 126.994 376.274 126.143 376.556C125.293 376.838 124.509 377.3 123.844 377.913C119.941 381.711 121.419 391.56 123.487 396.016C123.618 396.275 125.251 398.966 126.377 400.649C125.602 399.76 124.939 398.884 124.065 397.981C122.486 396.175 120.851 394.412 119.115 392.52L116.464 389.828C115.604 388.926 114.574 388.07 113.601 387.169C111.355 385.139 108.982 383.183 106.554 381.287C108.088 379.814 113.528 374.732 114.894 371.346C116.261 367.96 117.284 363.273 115.442 359.859C115.044 359.034 114.481 358.305 113.79 357.72C113.098 357.134 112.294 356.705 111.43 356.461C110.567 356.217 109.662 356.162 108.777 356.302C107.892 356.442 107.045 356.772 106.293 357.272C101.872 360.424 101.868 370.394 103.262 375.121C103.35 375.41 104.724 378.685 105.511 380.459C104.083 379.333 102.654 378.191 101.056 377.096C96.6606 373.92 92.0967 370.848 87.5752 367.776L83.4384 364.931C83.9966 364.43 90.5129 358.476 92.1556 354.651C93.6067 351.279 94.545 346.578 92.7033 343.164C92.2959 342.356 91.7284 341.644 91.0371 341.075C90.3459 340.505 89.5463 340.091 88.6899 339.858C87.8335 339.625 86.9392 339.579 86.0647 339.723C85.1902 339.866 84.3547 340.196 83.6122 340.692C79.1906 343.83 79.1872 353.815 80.5946 358.526C80.6983 358.873 82.6851 363.591 83.2382 364.759C80.2136 362.653 77.2165 360.489 74.3324 358.323C70.4349 355.352 66.7279 352.126 63.2345 348.665C63.4856 348.429 70.3377 342.239 72.0082 338.385C73.4596 335.027 74.4118 330.312 72.5702 326.898C72.1628 326.08 71.5926 325.359 70.8966 324.783C70.2005 324.206 69.3942 323.786 68.5301 323.55C67.666 323.314 66.7634 323.268 65.8809 323.414C64.9984 323.56 64.1558 323.895 63.408 324.397C58.9866 327.55 58.983 337.52 60.3904 342.232C60.4945 342.608 62.6415 347.672 63.0917 348.551L62.4619 347.965C59.0489 344.395 55.9547 340.518 53.2166 336.381C51.6733 334.109 50.3283 331.863 49.0542 329.646C50.4531 328.625 56.746 323.894 58.6359 320.574C60.5258 317.253 61.8775 312.823 60.4149 309.229C60.099 308.369 59.6105 307.588 58.9812 306.934C58.3519 306.281 57.5959 305.771 56.7623 305.438C55.9287 305.104 55.0362 304.955 54.143 304.999C53.2497 305.043 52.3756 305.28 51.5775 305.694C46.8523 308.328 45.7882 318.24 46.6747 323.09C46.6783 323.351 47.4917 325.981 48.1537 327.873C47.6029 326.865 47.0092 325.828 46.5012 324.848C44.5571 321.175 42.9964 317.64 41.6403 314.597C40.8952 312.822 40.1805 311.207 39.6509 309.69C40.5031 307.966 43.8676 300.924 44.0419 297.177C44.2162 293.431 43.3317 288.726 40.4712 286.226C39.8054 285.613 39.0213 285.15 38.1702 284.868C37.319 284.586 36.4198 284.492 35.5309 284.59C34.6421 284.689 33.7835 284.978 33.011 285.44C32.2385 285.902 31.5694 286.525 31.0472 287.27C28.03 291.84 31.5354 301.138 34.4999 305.03C34.759 305.375 39.3463 310.144 39.3875 310.057L39.3861 309.955C39.9288 311.399 40.5303 313.001 41.2038 314.705C42.5045 317.836 43.9946 321.371 45.8547 325.104C47.8351 329.151 50.0455 333.075 52.4742 336.855C55.1612 341.102 58.2094 345.096 61.5831 348.79L61.712 348.918C60.2881 348.125 56.4026 346.089 56.0192 345.949C51.5162 344.212 41.8569 343.576 38.4974 347.904C37.9612 348.637 37.5815 349.478 37.3831 350.372C37.1846 351.267 37.1718 352.194 37.3455 353.094C37.5193 353.994 37.8756 354.846 38.3914 355.595C38.9071 356.345 39.5706 356.974 40.3388 357.442C43.5759 359.589 48.2006 358.887 51.574 357.607Z" fill="#071B49"/>
<path d="M120.49 289.533C120.589 289.531 118.987 283.023 118.84 282.618C117.151 277.998 111.235 270.097 105.855 270.36C104.965 270.433 104.1 270.696 103.316 271.134C102.532 271.571 101.845 272.173 101.301 272.9C100.758 273.626 100.368 274.462 100.159 275.354C99.9489 276.245 99.9235 277.172 100.084 278.074C100.66 281.941 104.194 285.085 107.355 286.841C111.057 288.908 120.476 289.533 120.49 289.533Z" fill="#071B49"/>
<path d="M473.04 351.784C469.207 350.459 462.806 344.292 462.29 343.791C458.869 347.566 455.203 351.098 451.316 354.363C449.068 356.266 446.748 358.127 444.4 359.959C445.591 359.289 446.671 358.694 446.826 358.634C451.279 356.773 460.917 355.87 464.395 360.104C464.95 360.823 465.352 361.654 465.574 362.543C465.796 363.432 465.833 364.359 465.683 365.263C465.533 366.168 465.199 367.029 464.703 367.792C464.207 368.555 463.559 369.201 462.803 369.69C459.669 371.895 455.027 371.35 451.619 370.163C448.212 368.977 442.602 363.83 441.156 362.442L438.429 364.526C434.052 367.837 429.675 371.12 425.469 374.472C423.987 375.654 422.563 376.878 421.138 378.088C422.204 377.492 423.102 377.001 423.256 376.941C427.695 375.08 437.347 374.177 440.825 378.411C441.381 379.131 441.783 379.963 442.005 380.853C442.228 381.743 442.265 382.671 442.115 383.577C441.965 384.483 441.631 385.345 441.134 386.109C440.638 386.873 439.991 387.521 439.234 388.011C436.099 390.202 431.443 389.657 428.05 388.485C424.657 387.313 419.576 382.637 417.844 381.007C416.449 382.289 415.054 383.57 413.659 384.896C412.767 385.808 411.86 386.633 411.026 387.603C410.192 388.572 409.342 389.483 408.522 390.424C406.979 392.259 405.394 394.153 403.936 396.002C402.922 397.279 401.964 398.496 401.006 399.743C402.473 398.547 405.381 396.272 405.647 396.109C409.766 393.585 419.186 391.176 423.221 394.836C423.877 395.459 424.398 396.218 424.749 397.062C425.101 397.906 425.275 398.816 425.261 399.734C425.248 400.652 425.045 401.556 424.668 402.388C424.291 403.22 423.747 403.96 423.073 404.561C420.283 407.212 415.623 407.407 412.082 406.774C408.201 406.058 401.224 401.191 400.354 400.579C398.771 402.633 397.259 404.657 395.845 406.577C392.073 411.738 388.914 416.324 386.493 420.029L383.291 418.361C385.867 414.61 389.235 409.891 393.302 404.581C394.898 402.483 396.648 400.282 398.468 398.037C396.678 395.942 395.011 393.741 393.474 391.444C389.665 392.948 381.793 392.781 380.775 392.766C380.571 395.381 380.38 397.909 380.244 400.32C379.878 406.58 379.728 412.068 379.676 416.466L376.203 414.642C376.358 410.518 376.629 405.609 377.062 400.117C377.28 397.459 377.551 394.639 377.85 391.733C376.858 391.456 368.715 389.13 365.67 386.531C362.91 384.175 360.032 380.383 360.203 376.448C360.213 375.53 360.41 374.624 360.783 373.791C361.155 372.957 361.695 372.213 362.367 371.608C363.038 371.003 363.827 370.55 364.68 370.28C365.534 370.009 366.434 369.926 367.321 370.036C372.645 370.848 376.95 379.772 377.738 384.637C377.742 384.928 377.956 388.103 378.026 390.105C378.165 388.927 378.276 387.779 378.429 386.558C378.706 384.145 379.055 381.746 379.429 379.172C379.638 377.935 379.861 376.684 380.084 375.418C380.306 374.153 380.642 372.856 380.92 371.561C381.628 368.561 382.477 365.575 383.396 362.572C381.344 362.325 374.066 361.25 370.975 359.391C367.883 357.533 364.488 354.184 364.095 350.314C363.97 349.405 364.032 348.48 364.277 347.597C364.522 346.715 364.946 345.895 365.52 345.192C366.094 344.489 366.805 343.917 367.608 343.515C368.411 343.113 369.288 342.889 370.181 342.858C375.563 342.783 381.145 350.993 382.638 355.747C382.741 356.05 383.439 359.538 383.791 361.464C384.359 359.656 384.928 357.863 385.553 356.07C387.389 350.878 389.394 345.683 391.371 340.49C391.985 338.899 392.57 337.309 393.156 335.719C392.434 335.628 383.744 334.601 380.282 332.472C377.217 330.57 373.809 327.264 373.402 323.395C373.277 322.486 373.338 321.56 373.584 320.678C373.829 319.795 374.253 318.976 374.826 318.273C375.4 317.569 376.112 316.998 376.915 316.596C377.718 316.194 378.595 315.97 379.488 315.938C384.87 315.864 390.452 324.074 391.958 328.755C392.062 329.116 393.078 334.138 393.265 335.427C394.63 331.926 395.839 328.411 396.963 324.913C398.488 320.183 399.715 315.357 400.635 310.465C400.296 310.47 391.238 309.39 387.69 307.204C384.611 305.302 381.203 301.997 380.796 298.127C380.673 297.218 380.736 296.292 380.984 295.409C381.231 294.527 381.655 293.707 382.23 293.004C382.805 292.301 383.518 291.73 384.322 291.328C385.125 290.926 386.002 290.702 386.896 290.671C392.278 290.596 397.846 298.806 399.352 303.488C399.47 303.863 400.548 309.276 400.674 310.261C400.67 309.971 400.822 309.693 400.86 309.403C401.655 304.468 402.016 299.47 401.94 294.468C401.902 291.711 401.781 289.072 401.576 286.506C399.866 286.529 392.064 286.347 388.665 284.739C385.266 283.132 381.666 280.294 380.851 276.488C380.628 275.598 380.591 274.671 380.741 273.765C380.891 272.86 381.225 271.998 381.721 271.234C382.216 270.47 382.863 269.822 383.619 269.332C384.375 268.842 385.223 268.521 386.108 268.39C391.454 267.764 397.873 275.237 399.857 279.738C399.974 279.983 400.801 282.627 401.336 284.492C401.221 283.347 401.134 282.144 401.006 281.042C400.538 276.884 399.865 273.12 399.225 269.776C398.86 267.88 398.483 266.187 398.122 264.596C396.456 263.675 389.778 259.922 387.518 256.934C385.258 253.947 383.293 249.736 384.271 245.92C384.475 245.027 384.859 244.187 385.398 243.456C385.938 242.725 386.621 242.119 387.404 241.677C388.186 241.235 389.051 240.968 389.941 240.891C390.832 240.815 391.728 240.932 392.571 241.234C397.6 243.196 399.938 252.873 399.695 257.796C399.701 258.232 398.592 264.85 398.506 264.793L398.407 264.795C398.782 266.314 399.186 267.948 399.578 269.757C400.274 273.085 401.089 276.847 401.599 281.005C402.246 285.476 402.639 289.983 402.774 294.5C402.957 299.563 402.701 304.632 402.008 309.648L402.011 309.822C402.697 308.361 404.761 304.356 404.955 304.078C407.725 300.005 415.226 293.777 420.377 295.346C421.227 295.631 422.008 296.096 422.671 296.712C423.334 297.328 423.864 298.081 424.225 298.92C424.585 299.76 424.77 300.669 424.766 301.587C424.762 302.505 424.57 303.411 424.202 304.247C422.768 307.852 418.63 310.042 415.139 310.99C411.226 312.046 402.571 310.525 401.877 310.404C401.052 315.487 399.894 320.507 398.411 325.43C397.561 328.344 396.626 331.172 395.704 334.03C396.337 332.787 396.915 331.691 397.012 331.544C399.782 327.471 407.298 321.243 412.434 322.812C413.284 323.097 414.066 323.563 414.729 324.179C415.392 324.794 415.922 325.546 416.284 326.386C416.646 327.225 416.832 328.133 416.83 329.051C416.828 329.969 416.639 330.876 416.273 331.714C414.825 335.333 410.701 337.509 407.196 338.457C403.691 339.405 396.272 338.274 394.317 337.938L393.175 341.219C391.298 346.47 389.406 351.692 387.74 356.867C387.143 358.689 386.617 360.51 386.092 362.332C386.656 361.236 387.138 360.315 387.22 360.183C389.99 356.11 397.506 349.882 402.642 351.451C403.491 351.738 404.271 352.204 404.933 352.821C405.595 353.437 406.123 354.189 406.483 355.028C406.844 355.868 407.029 356.775 407.026 357.693C407.023 358.61 406.833 359.516 406.467 360.352C405.019 363.957 400.895 366.147 397.39 367.096C393.885 368.044 387.188 367.004 384.865 366.63C384.382 368.509 383.886 370.388 383.53 372.236C383.293 373.502 382.97 374.711 382.804 375.99C382.638 377.27 382.415 378.521 382.221 379.757C381.929 382.17 381.624 384.656 381.403 387.025C381.227 388.667 381.094 390.237 380.96 391.806C381.542 389.984 382.751 386.44 382.874 386.148C384.802 382.273 387.665 378.97 391.191 376.557C391.384 376.116 391.624 375.698 391.909 375.313C392.41 374.554 393.061 373.913 393.82 373.43C394.578 372.947 395.428 372.634 396.312 372.511C397.197 372.388 398.097 372.457 398.954 372.715C399.811 372.973 400.606 373.414 401.287 374.008C405.294 377.697 404.102 387.582 402.144 392.094C402.021 392.357 400.462 395.092 399.383 396.805C400.134 395.895 400.856 395 401.634 394.074C403.163 392.225 404.735 390.418 406.432 388.479L408.994 385.715C409.843 384.789 410.848 383.904 411.782 382.977C413.971 380.886 416.289 378.866 418.678 376.902C417.104 375.473 411.525 370.543 410.066 367.196C408.607 363.849 407.44 359.192 409.187 355.729C409.57 354.899 410.119 354.161 410.798 353.564C411.478 352.967 412.272 352.524 413.129 352.263C413.987 352.002 414.888 351.929 415.775 352.049C416.662 352.17 417.514 352.481 418.276 352.962C422.783 355.991 423.048 365.957 421.786 370.721C421.705 371.012 420.422 374.324 419.684 376.119C421.081 374.954 422.548 373.772 424.044 372.634C428.365 369.338 432.828 366.142 437.277 362.945L441.32 359.987C440.762 359.501 434.07 353.731 432.322 349.952C430.778 346.621 429.71 341.948 431.457 338.485C431.84 337.654 432.389 336.917 433.069 336.32C433.748 335.723 434.543 335.28 435.401 335.02C436.259 334.76 437.161 334.689 438.047 334.812C438.934 334.935 439.786 335.248 440.547 335.732C445.039 338.747 445.318 348.728 444.056 353.476C443.962 353.826 442.106 358.597 441.571 359.78C444.551 357.591 447.487 355.345 450.296 353.1C454.113 350.026 457.729 346.699 461.123 343.14C460.865 342.911 453.859 336.912 452.068 333.106C450.525 329.789 449.457 325.102 451.203 321.638C451.586 320.81 452.135 320.074 452.814 319.479C453.492 318.883 454.285 318.441 455.142 318.181C455.998 317.922 456.898 317.85 457.783 317.972C458.668 318.093 459.518 318.405 460.279 318.886C464.786 321.915 465.065 331.881 463.788 336.63C463.694 337.009 461.702 342.13 461.276 343.022L461.89 342.418C465.194 338.752 468.175 334.791 470.797 330.583C472.277 328.27 473.56 325.988 474.772 323.736C473.346 322.754 466.924 318.199 464.958 314.932C462.991 311.665 461.503 307.273 462.866 303.641C463.158 302.773 463.625 301.978 464.236 301.307C464.847 300.637 465.588 300.106 466.412 299.75C467.236 299.394 468.124 299.219 469.019 299.239C469.913 299.258 470.793 299.471 471.602 299.863C476.399 302.365 477.736 312.245 476.984 317.117C476.987 317.378 476.233 320.03 475.637 321.939C476.16 320.916 476.725 319.863 477.22 318.87C479.062 315.143 480.51 311.568 481.782 308.488C482.492 306.693 483.147 305.058 483.649 303.528C482.735 301.828 479.192 294.882 478.9 291.141C478.608 287.401 479.278 282.704 482.11 280.125C482.759 279.494 483.53 279.01 484.373 278.704C485.216 278.399 486.112 278.28 487.004 278.353C487.895 278.427 488.761 278.693 489.546 279.133C490.331 279.574 491.017 280.179 491.56 280.909C494.702 285.394 491.455 294.785 488.613 298.757C488.364 299.109 483.896 304.003 483.852 303.917L483.851 303.815C483.362 305.273 482.805 306.892 482.165 308.613C480.965 311.779 479.573 315.354 477.803 319.137C475.944 323.236 473.853 327.22 471.539 331.066C468.98 335.392 466.042 339.469 462.763 343.248L462.638 343.38C464.039 342.548 467.867 340.405 468.246 340.255C472.686 338.394 482.338 337.491 485.816 341.725C486.371 342.444 486.773 343.275 486.995 344.164C487.217 345.053 487.254 345.98 487.104 346.884C486.954 347.789 486.62 348.65 486.124 349.413C485.627 350.176 484.98 350.822 484.224 351.311C481.09 353.545 476.434 352.971 473.04 351.784Z" fill="#071B49"/>
<path d="M402.27 285.64C402.171 285.641 403.592 279.091 403.714 278.683C405.274 274.017 410.984 265.956 416.355 266.071C417.248 266.117 418.121 266.355 418.918 266.77C419.715 267.184 420.419 267.767 420.983 268.479C421.547 269.191 421.959 270.017 422.192 270.903C422.426 271.789 422.475 272.715 422.337 273.622C421.882 277.503 418.423 280.744 415.326 282.586C411.682 284.755 402.27 285.64 402.27 285.64Z" fill="#071B49"/>
</g>
<path d="M35.0786 155.523C30.2513 146.217 28.2275 139.549 28.2275 138.006C28.2275 134.954 34.8629 133.129 34.8629 133.129C45.2141 127.655 93.9012 135.567 115.815 139.217C128.081 141.355 140.491 142.575 152.939 142.866C152.939 142.866 155.975 140.444 159.575 137.392C163.174 134.34 180.261 114.268 186.962 112.509C193.664 110.751 199.735 114.948 199.735 114.948C199.735 114.948 210.7 121.583 208.859 122.861C207.018 124.138 180.261 147.196 173.559 151.459C166.857 155.722 152.873 153.898 140.697 156.336C130.213 158.426 87.7469 161.014 78.0094 161.81C70.6966 163.545 63.0214 162.906 56.0961 159.986" fill="white"/>
<path d="M199.851 114.882C199.851 114.882 193.763 110.618 187.078 112.443C180.393 114.268 163.34 134.356 159.691 137.326C156.041 140.295 153.055 142.8 153.055 142.8C140.607 142.509 128.197 141.289 115.93 139.15C94.0172 135.501 45.3301 127.539 34.9789 133.062C34.9789 133.062 28.3435 134.887 28.3435 137.939C28.574 139.646 29.0142 141.317 29.654 142.916L30.5664 143.248C30.5664 143.248 42.7257 141.97 68.9686 142.601C95.2115 143.231 155.909 146.831 159.807 148.241C161.466 148.871 173.227 146.217 186.266 141.606C196.219 133.494 207.913 123.358 209.091 122.645C210.816 121.567 199.851 114.882 199.851 114.882Z" fill="#FFB127"/>
<path opacity="0.5" d="M199.851 114.882C199.851 114.882 193.763 110.618 187.078 112.443C180.393 114.268 163.34 134.356 159.691 137.326C156.041 140.295 153.055 142.8 153.055 142.8C140.607 142.509 128.197 141.289 115.93 139.15C94.0172 135.501 45.3301 127.539 34.9789 133.062C34.9789 133.062 28.3435 134.887 28.3435 137.939C28.574 139.646 29.0142 141.317 29.654 142.916L30.5664 143.248C30.5664 143.248 42.7257 141.97 68.9686 142.601C95.2115 143.231 155.909 146.831 159.807 148.241C161.466 148.871 173.227 146.217 186.266 141.606C196.219 133.494 207.913 123.358 209.091 122.645C210.816 121.567 199.851 114.882 199.851 114.882Z" fill="white"/>
<path d="M35.0786 155.523C30.2513 146.217 28.2275 139.549 28.2275 138.006C28.2275 134.954 34.8629 133.129 34.8629 133.129C45.2141 127.655 93.9012 135.567 115.815 139.217C128.081 141.355 140.491 142.575 152.939 142.866C152.939 142.866 155.975 140.444 159.575 137.392C163.174 134.34 180.261 114.268 186.962 112.509C193.664 110.751 199.735 114.948 199.735 114.948C199.735 114.948 210.7 121.583 208.859 122.861C207.018 124.138 180.261 147.196 173.559 151.459C166.857 155.722 152.873 153.898 140.697 156.336C130.213 158.426 87.7469 161.014 78.0094 161.81C70.6966 163.545 63.0214 162.906 56.0961 159.986" stroke="#071B49" stroke-linecap="round" stroke-linejoin="round"/>
<path d="M275.461 209.635C276.562 207.545 278.214 205.795 280.237 204.576C282.26 203.357 284.578 202.714 286.941 202.717H397.586C397.586 202.717 405.581 202.717 403.192 217.912C400.804 233.107 367.992 325.886 360.062 353.937C352.133 381.988 350.458 441.11 350.458 441.11H217.75C217.75 441.11 228.267 299.726 275.461 209.635Z" fill="white"/>
<path opacity="0.16" d="M325.293 202.717H286.941C284.579 202.714 282.26 203.357 280.237 204.576C278.214 205.795 276.563 207.545 275.462 209.635C228.267 299.726 217.634 441.06 217.634 441.06H277.154L291.834 385.306L353.046 397.93C353.477 393.252 353.975 388.491 354.555 383.797L353.212 368.867C353.212 368.867 340.671 355.679 336.723 352.378C332.775 349.077 335.396 343.122 334.732 317.393C334.069 291.664 310.977 273.168 302.385 257.326C293.792 241.484 307.013 231.581 318.89 215.739C323.12 210.016 324.845 205.803 325.293 202.717Z" fill="black"/>
<path d="M275.461 209.635C276.562 207.545 278.214 205.795 280.237 204.576C282.26 203.357 284.578 202.714 286.941 202.717H397.586C397.586 202.717 405.581 202.717 403.192 217.912C400.804 233.107 367.992 325.886 360.063 353.937C352.133 381.988 350.458 441.11 350.458 441.11H217.75C217.75 441.11 228.267 299.726 275.461 209.635Z" stroke="#071B49" stroke-linecap="round" stroke-linejoin="round"/>
<path d="M385.056 232.623C373.875 258.717 350.22 362.013 346.371 444.574H357.054C357.054 444.574 358.713 385.386 366.659 357.402C374.605 329.417 407.45 236.621 409.789 221.376C412.128 206.132 404.182 206.181 404.182 206.181C404.182 206.181 394.03 211.705 385.056 232.623Z" fill="#071B49" stroke="#071B49" stroke-linecap="round" stroke-linejoin="round"/>
<path d="M184.026 176.955C184.026 176.955 166.376 166.604 159.691 148.357C153.006 130.11 212.027 100.881 237.656 99.0561C263.286 97.2313 270.518 103.916 285.763 130.093C301.008 156.27 311.326 192.167 303.413 209.817C295.5 227.467 282.113 231.73 291.801 246.312C301.489 260.893 328.926 302.298 327.101 321.773C325.277 341.247 306.415 358.267 278.995 360.125C251.574 361.983 215.08 345.511 184.656 318.654C154.233 291.797 162.129 252.3 173.044 239.527C183.96 226.754 200.432 221.877 201.643 209.104C202.854 196.331 184.026 176.955 184.026 176.955Z" fill="#071B49" stroke="#071B49" stroke-linecap="round" stroke-linejoin="round"/>
<path d="M259.255 148.075C268.627 165.526 280.355 188.899 284.021 203.016C290.424 227.733 257.48 243.293 266.62 255.186" stroke="white" stroke-linecap="round" stroke-linejoin="round"/>
<path d="M246.481 125.216C246.481 125.216 250.131 131.437 255.174 140.594" stroke="white" stroke-linecap="round" stroke-linejoin="round"/>
<path d="M295.649 169.126C296.731 172.396 297.432 175.78 297.74 179.211" stroke="white" stroke-linecap="round" stroke-linejoin="round"/>
<path d="M252.818 116.142C252.818 116.142 281.649 137.442 293.161 162.938" stroke="white" stroke-linecap="round" stroke-linejoin="round"/>
<path d="M212.807 132.117C192.22 137.89 162.61 147.262 165.015 152.67" stroke="white" stroke-linecap="round" stroke-linejoin="round"/>
<path d="M231.834 127.041C231.834 127.041 227.438 128.136 220.885 129.894" stroke="white" stroke-linecap="round" stroke-linejoin="round"/>
<path d="M206.371 116.291C218.163 112.575 230.513 110.947 242.865 111.481" stroke="white" stroke-linecap="round" stroke-linejoin="round"/>
<path d="M197.977 119.725C199.841 118.754 201.77 117.911 203.749 117.204" stroke="white" stroke-linecap="round" stroke-linejoin="round"/>
<path d="M28.2273 138.006C28.2198 138.122 28.2198 138.238 28.2273 138.354C28.2198 138.238 28.2198 138.122 28.2273 138.006ZM35.0784 155.523C32.2845 150.407 30.0594 145 28.443 139.399C30.0516 145.003 32.277 150.41 35.0784 155.523ZM28.2605 138.454C28.2605 138.553 28.2605 138.669 28.2605 138.819C28.2937 138.669 28.2771 138.553 28.2605 138.454ZM28.3434 138.918C28.3639 139.081 28.3972 139.242 28.443 139.399C28.3972 139.242 28.3639 139.081 28.3434 138.918ZM35.0784 155.507C41.2824 167.258 49.001 178.144 58.0368 187.887C79.9501 211.625 143.252 273.716 149.273 277.979C155.295 282.242 153.536 294.402 149.273 306.577C145.01 318.753 129.185 336.437 129.798 355.878C130.412 375.32 136.434 405.179 135.886 411.267C135.339 417.355 120.111 438.057 120.111 438.057H277.137C277.137 438.057 257.563 413.175 257.563 404.665C257.563 396.155 284.436 287.119 285.647 279.207C286.858 271.294 281.997 265.82 272.26 265.206C262.523 264.592 225.398 256.679 223.573 250.591C221.748 244.504 233.31 221.379 233.31 221.379L196.816 223.204C196.816 223.204 194.991 239.029 192.552 242.082C190.114 245.134 186.464 239.029 177.938 234.783C169.412 230.536 153.055 226.87 146.901 221.993C140.747 217.116 82.3886 162.275 82.3886 162.275" fill="white"/>
<path d="M156.224 226.688C159.259 231.996 162.295 236.79 162.295 236.79C162.295 236.79 172.53 242.546 175.085 242.546C177.639 242.546 193 250.84 193 250.84C193 250.84 205.806 247.639 201.294 236.757C199.871 233.971 198.074 231.393 195.953 229.093C195.19 233.92 193.962 240.24 192.519 242.048C190.081 245.084 186.431 238.996 177.905 234.75C172.381 231.996 163.44 229.474 156.224 226.688Z" fill="#FFB127"/>
<path d="M124.971 202.054C106.177 184.652 82.3889 162.341 82.3889 162.341L68.5541 160.35L66.8953 161.279C66.8953 161.279 105.944 195.833 114.255 199.682C117.617 201.227 121.271 202.036 124.971 202.054Z" fill="#FFB127"/>
<path d="M144.662 220.069L143.169 218.742C143.932 220.002 144.364 220.799 144.364 220.799L144.662 220.069Z" fill="#FFB127"/>
<g opacity="0.5">
<path opacity="0.5" d="M156.224 226.688C159.259 231.996 162.295 236.79 162.295 236.79C162.295 236.79 172.53 242.546 175.085 242.546C177.639 242.546 193 250.84 193 250.84C193 250.84 205.806 247.639 201.294 236.757C199.871 233.971 198.074 231.393 195.953 229.093C195.19 233.92 193.962 240.24 192.519 242.048C190.081 245.084 186.431 238.996 177.905 234.75C172.381 231.996 163.44 229.474 156.224 226.688Z" fill="white"/>
<path opacity="0.5" d="M124.971 202.054C106.177 184.652 82.3889 162.341 82.3889 162.341L68.5541 160.35L66.8953 161.279C66.8953 161.279 105.944 195.833 114.255 199.682C117.617 201.227 121.271 202.036 124.971 202.054Z" fill="white"/>
<path opacity="0.5" d="M144.662 220.069L143.169 218.742C143.932 220.002 144.364 220.799 144.364 220.799L144.662 220.069Z" fill="white"/>
</g>
<path d="M35.0784 155.507C41.2824 167.258 49.001 178.144 58.0368 187.887C79.9501 211.625 143.252 273.716 149.273 277.979C155.295 282.242 153.536 294.402 149.273 306.577C145.01 318.753 129.185 336.437 129.798 355.878C130.412 375.32 136.434 405.179 135.886 411.267C135.339 417.355 120.111 438.057 120.111 438.057H277.137C277.137 438.057 257.563 413.175 257.563 404.665C257.563 396.155 284.436 287.119 285.647 279.207C286.858 271.294 281.997 265.82 272.26 265.206C262.523 264.592 225.398 256.679 223.573 250.591C221.748 244.504 233.31 221.379 233.31 221.379L196.816 223.204C196.816 223.204 194.991 239.029 192.552 242.082C190.114 245.134 186.464 239.029 177.938 234.783C169.412 230.536 153.055 226.87 146.901 221.993C140.747 217.116 82.3886 162.275 82.3886 162.275M28.2273 138.006C28.2198 138.122 28.2198 138.238 28.2273 138.354C28.2198 138.238 28.2198 138.122 28.2273 138.006V138.006ZM35.0784 155.523C32.2845 150.407 30.0594 145 28.443 139.399C30.0516 145.003 32.277 150.41 35.0784 155.523V155.523ZM28.2605 138.454C28.2605 138.553 28.2605 138.669 28.2605 138.819C28.2937 138.669 28.2771 138.553 28.2605 138.454V138.454ZM28.3434 138.918C28.3639 139.081 28.3972 139.242 28.443 139.399C28.3972 139.242 28.3639 139.081 28.3434 138.918Z" stroke="#071B49" stroke-linecap="round" stroke-linejoin="round"/>
<path d="M82.3884 162.341C82.3884 162.341 62.9467 162.706 52.0979 153.765" stroke="#071B49" stroke-linecap="round" stroke-linejoin="round"/>
<path d="M223.59 250.591C221.765 244.52 233.327 221.379 233.327 221.379L196.833 223.204C196.833 223.204 195.008 239.029 192.569 242.082C190.131 245.134 186.481 239.029 177.955 234.783C177.308 234.451 176.595 234.136 175.865 233.821L173.658 268.507C173.658 268.507 176.86 302.099 215.246 295.712C230.789 293.124 247.377 279.256 261.693 263.663C246.963 260.959 224.983 255.253 223.59 250.591Z" fill="white"/>
<path d="M222.561 225.974C222.561 225.974 220.355 238.349 218.58 252.035C216.805 265.72 215.494 275.905 215.494 275.905L223.59 250.591L232.713 223.768C232.713 223.768 223.888 223.768 222.561 225.974Z" fill="#FFB127"/>
<path opacity="0.5" d="M222.561 225.974C222.561 225.974 220.355 238.349 218.58 252.035C216.805 265.72 215.494 275.905 215.494 275.905L223.59 250.591L232.713 223.768C232.713 223.768 223.888 223.768 222.561 225.974Z" fill="white"/>
<path d="M223.59 250.591C221.765 244.52 233.327 221.379 233.327 221.379L196.833 223.204C196.833 223.204 195.008 239.029 192.569 242.082C190.131 245.134 186.481 239.029 177.955 234.783C177.308 234.451 176.595 234.136 175.865 233.821L173.658 268.507C173.658 268.507 176.86 302.099 215.246 295.712C230.789 293.124 247.377 279.256 261.693 263.663C246.963 260.959 224.983 255.253 223.59 250.591Z" stroke="#071B49" stroke-linecap="round" stroke-linejoin="round"/>
<path d="M192.552 242.081C190.114 245.117 186.464 239.029 177.938 234.782C172.563 232.079 164.003 229.623 156.92 226.969C154.913 222.208 152.259 216.004 150.55 212.255C147.515 205.62 142.638 209.817 142.638 209.817C140.093 206.923 138.037 203.634 136.55 200.079C133.514 193.444 128.637 193.992 121.952 192.781C115.267 191.57 101.249 178.78 101.249 178.78C101.249 178.78 94.697 173.803 91.993 171.332C88.8412 177.536 81.2935 188.451 64.9705 195.269C90.9977 222.457 143.799 274.114 149.339 277.995C155.427 282.242 153.603 294.418 149.339 306.594C145.076 318.77 129.251 336.453 129.864 355.895C130.478 375.336 136.5 405.196 135.952 411.284C135.405 416.708 123.262 433.711 120.625 437.361L126.812 438.057H159.027C158.844 421.734 158.861 355.115 170.025 328.574C182.815 298.067 192.552 242.081 192.552 242.081Z" fill="#FFB127"/>
<path opacity="0.16" d="M177.938 234.782C172.563 232.079 164.004 229.623 156.92 226.969C154.913 222.208 152.259 216.004 150.55 212.255C147.515 205.62 142.638 209.817 142.638 209.817C140.093 206.923 138.037 203.634 136.55 200.079C133.514 193.444 128.637 193.992 121.952 192.781C115.267 191.57 101.25 178.78 101.25 178.78C101.25 178.78 94.6972 173.803 91.9933 171.332C90.6441 173.966 89.0383 176.461 87.1992 178.78C98.0812 187.986 110.091 197.74 114.288 199.681C122.582 203.513 124.523 200.312 130.877 204.16C137.23 208.009 144.313 220.749 144.313 220.749C144.313 220.749 148.162 210.497 151.363 217.547C154.565 224.597 162.245 236.74 162.245 236.74C162.245 236.74 172.48 242.496 175.035 242.496C177.042 242.496 186.879 247.605 191.059 249.812C191.988 244.951 192.503 242.032 192.503 242.032C190.114 245.117 186.464 239.029 177.938 234.782Z" fill="black"/>
<path d="M192.552 242.081C190.114 245.117 186.464 239.029 177.938 234.782C172.563 232.079 164.003 229.623 156.92 226.969C154.913 222.208 152.259 216.004 150.55 212.255C147.515 205.62 142.638 209.817 142.638 209.817C140.093 206.923 138.037 203.634 136.55 200.079C133.514 193.444 128.637 193.992 121.952 192.781C115.267 191.57 101.249 178.78 101.249 178.78C101.249 178.78 94.697 173.803 91.993 171.332C88.8412 177.536 81.2935 188.451 64.9705 195.269C90.9977 222.457 143.799 274.114 149.339 277.995C155.427 282.242 153.603 294.418 149.339 306.594C145.076 318.77 129.251 336.453 129.864 355.895C130.478 375.336 136.5 405.196 135.952 411.284C135.405 416.708 123.262 433.711 120.625 437.361L126.812 438.057H159.027C158.844 421.734 158.861 355.115 170.025 328.574C182.815 298.067 192.552 242.081 192.552 242.081Z" stroke="#071B49" stroke-linecap="round" stroke-linejoin="round"/>
<path d="M192.984 239.958C192.984 239.958 185.42 237.636 180.758 241.717C176.097 245.798 169.146 266.732 165.049 289.442C162.524 302.662 164.266 316.343 170.025 328.508C170.025 328.508 179.597 303.409 182.5 291.184C185.403 278.958 192.984 239.958 192.984 239.958Z" fill="#FFB127"/>
<path opacity="0.16" d="M178.468 243.658C178.468 243.658 183.942 242.33 186.198 243.094C188.098 243.908 189.874 244.986 191.474 246.295L192.983 239.958C190.719 238.801 188.15 238.378 185.634 238.747C181.869 239.51 178.468 243.658 178.468 243.658Z" fill="black"/>
<path d="M192.984 239.958C192.984 239.958 185.42 237.636 180.758 241.717C176.097 245.798 169.146 266.732 165.049 289.442C162.524 302.662 164.266 316.343 170.025 328.508C170.025 328.508 179.597 303.409 182.5 291.184C185.403 278.958 192.984 239.958 192.984 239.958Z" stroke="#071B49" stroke-linecap="round" stroke-linejoin="round"/>
<path d="M142.041 241.949L151.778 281.513L129.865 231.598" stroke="#071B49" stroke-linecap="round" stroke-linejoin="round"/>
<path d="M206.188 438.058H277.153C277.153 438.058 257.579 413.175 257.579 404.665C257.579 396.155 284.452 287.119 285.663 279.207C286.874 271.294 282.014 265.82 272.276 265.206C262.539 264.592 225.414 256.68 223.589 250.592C223.589 250.592 209.589 299.892 204.728 333.368C200.548 362.083 204.877 421.668 206.188 438.058Z" fill="#FFB127"/>
<path opacity="0.16" d="M272.276 265.206C264.297 264.708 237.938 259.301 227.67 254.025L231.402 262.651C238.165 266.239 245.438 268.768 252.967 270.149C265.326 272.356 276.821 271.924 284.336 282.972L284.701 283.52C285.165 281.396 285.481 279.903 285.58 279.207C286.891 271.294 282.014 265.82 272.276 265.206Z" fill="black"/>
<path d="M206.188 438.058H277.153C277.153 438.058 257.579 413.175 257.579 404.665C257.579 396.155 284.452 287.119 285.663 279.207C286.874 271.294 282.014 265.82 272.276 265.206C262.539 264.592 225.414 256.68 223.589 250.592C223.589 250.592 209.589 299.892 204.728 333.368C200.548 362.083 204.877 421.668 206.188 438.058Z" stroke="#071B49" stroke-linecap="round" stroke-linejoin="round"/>
<path d="M223.59 250.592C223.59 250.592 204.811 310.31 204.729 333.368C204.729 333.368 231.403 301.07 234.886 278.377C238.37 255.684 223.59 250.592 223.59 250.592Z" fill="#FFB127"/>
<path opacity="0.16" d="M220.354 258.222C223.176 258.128 225.978 258.722 228.519 259.953C231.059 261.184 233.262 263.016 234.936 265.289C234.936 265.289 231.253 254.457 223.589 250.592L220.354 258.222Z" fill="black"/>
<path d="M223.59 250.592C223.59 250.592 204.811 310.31 204.729 333.368C204.729 333.368 231.403 301.07 234.886 278.377C238.37 255.684 223.59 250.592 223.59 250.592Z" stroke="#071B49" stroke-linecap="round" stroke-linejoin="round"/>
<path d="M424.061 426.827C424.061 426.827 437.813 427.391 446.82 428.685C452.827 429.5 458.875 429.981 464.935 430.128C464.935 430.128 459.958 420.076 454.65 417.239C449.342 414.403 439.72 409.327 431.658 410.455C423.596 411.583 412.067 419.711 413.029 422.299C413.992 424.886 418.288 426.048 424.061 426.827Z" fill="white"/>
<path d="M424.061 426.827C424.061 426.827 437.813 427.391 446.82 428.685C452.827 429.5 458.875 429.981 464.935 430.128C464.935 430.128 459.958 420.076 454.65 417.239C449.342 414.403 439.72 409.327 431.658 410.455C423.596 411.583 412.067 419.711 413.029 422.299C413.992 424.886 418.288 426.048 424.061 426.827Z" fill="#FFB127"/>
<path opacity="0.5" d="M424.061 426.827C424.061 426.827 437.813 427.391 446.82 428.685C452.827 429.5 458.875 429.981 464.935 430.128C464.935 430.128 459.958 420.076 454.65 417.239C449.342 414.403 439.72 409.327 431.658 410.455C423.596 411.583 412.067 419.711 413.029 422.299C413.992 424.886 418.288 426.048 424.061 426.827Z" fill="white"/>
<path d="M424.061 426.827C424.061 426.827 437.813 427.391 446.82 428.685C452.827 429.5 458.875 429.981 464.935 430.128C464.935 430.128 459.958 420.076 454.65 417.239C449.342 414.403 439.72 409.327 431.658 410.455C423.596 411.583 412.067 419.711 413.029 422.299C413.992 424.886 418.288 426.048 424.061 426.827Z" stroke="#071B49" stroke-linecap="round" stroke-linejoin="round"/>
<path d="M439.123 413.407C439.123 413.407 453.654 412.943 456.541 414.402C459.427 415.862 472.466 438.223 470.508 439.849C468.551 441.475 463.143 440.994 463.309 439.186C463.475 437.377 451.299 425.401 451.299 425.401L441.827 423.327L439.123 413.407Z" stroke="#071B49" stroke-linecap="round" stroke-linejoin="round"/>
<path d="M430.514 410.405C430.514 410.405 445.228 409.924 448.147 411.417C451.067 412.91 464.271 435.52 462.281 437.178C460.29 438.837 454.849 438.323 455.015 436.498C455.181 434.674 442.855 422.547 442.855 422.547L433.267 420.441L430.514 410.405Z" fill="white"/>
<path d="M430.514 410.405C430.514 410.405 445.228 409.924 448.147 411.417C451.067 412.91 464.271 435.52 462.281 437.178C460.29 438.837 454.849 438.323 455.015 436.498C455.181 434.674 442.855 422.547 442.855 422.547L433.267 420.441L430.514 410.405Z" fill="#FFB127"/>
<path opacity="0.5" d="M430.514 410.405C430.514 410.405 445.228 409.924 448.147 411.417C451.067 412.91 464.271 435.52 462.281 437.178C460.29 438.837 454.849 438.323 455.015 436.498C455.181 434.674 442.855 422.547 442.855 422.547L433.267 420.441L430.514 410.405Z" fill="white"/>
<path d="M430.514 410.405C430.514 410.405 445.228 409.924 448.147 411.417C451.067 412.91 464.271 435.52 462.281 437.178C460.29 438.837 454.849 438.323 455.015 436.498C455.181 434.674 442.855 422.547 442.855 422.547L433.267 420.441L430.514 410.405Z" stroke="#071B49" stroke-linecap="round" stroke-linejoin="round"/>
<path d="M263.219 326.102C273.869 342.508 295.252 384.079 301.489 388.757C311.226 396.056 376.319 413.772 382.59 418.616C388.86 423.46 388.429 428.32 394.368 430.095C400.306 431.87 422.568 436.963 431.061 437.759C439.555 438.555 435.756 433.297 435.756 433.297L421.274 423.344L433.898 420.225C433.898 420.225 446.555 435.453 448.927 436.283C451.299 437.112 455.479 436.283 455.214 434.408C454.75 431.406 441.247 406.838 436.453 405.793C431.658 404.748 402.562 408.779 402.562 408.779C402.562 408.779 341.533 367.623 340.439 366.163C340.439 366.163 336.789 355.812 333.803 351.549C330.817 347.286 328.926 348.513 328.926 348.513C328.926 348.513 330.154 343.022 328.329 341.198L318.592 331.46L318.243 331.925C316.584 328.607 314.926 324.825 313.101 320.512C308.008 308.518 289.977 274.86 286.941 270C284.668 266.367 265.625 263.763 255.97 262.668" fill="#FFB127"/>
<path opacity="0.16" d="M305.619 327.147C313.582 334.214 310.928 334.214 309.153 340.418C307.378 346.622 310.48 338.212 317.994 338.659C325.509 339.107 323.303 348.812 322.407 350.587C321.511 352.361 331.696 354.568 329.921 358.532C328.147 362.497 317.994 368.253 312.255 374.009C306.515 379.766 327.267 364.72 334.334 364.289C336.491 364.139 338.265 364.421 339.758 364.388C338.192 359.95 336.18 355.681 333.753 351.648C330.701 347.385 328.876 348.613 328.876 348.613C328.876 348.613 330.104 343.122 328.279 341.297L318.542 331.56L318.193 332.024C316.535 328.706 314.876 324.924 313.051 320.611C307.958 308.618 289.927 274.96 286.891 270.099C284.618 266.467 265.575 263.862 255.92 262.767L256.8 270.448L257.015 270.614C257.015 270.614 268.942 272.82 272.924 273.268C276.905 273.716 281.765 277.232 281.317 279.903C280.869 282.574 269.39 294.484 272.924 295.38C276.457 296.276 280.438 286.539 284.419 287.866C288.401 289.193 297.607 320.08 305.619 327.147Z" fill="black"/>
<path d="M263.219 326.102C273.869 342.508 295.252 384.079 301.489 388.757C311.226 396.056 376.319 413.772 382.59 418.616C388.86 423.46 388.429 428.32 394.368 430.095C400.306 431.87 422.568 436.963 431.061 437.759C439.555 438.555 435.756 433.297 435.756 433.297L421.274 423.344L433.898 420.225C433.898 420.225 446.555 435.453 448.927 436.283C451.299 437.112 455.479 436.283 455.214 434.408C454.75 431.406 441.247 406.838 436.453 405.793C431.658 404.748 402.562 408.779 402.562 408.779C402.562 408.779 341.533 367.623 340.439 366.163C340.439 366.163 336.789 355.812 333.803 351.549C330.817 347.286 328.926 348.513 328.926 348.513C328.926 348.513 330.154 343.022 328.329 341.198L318.592 331.46L318.243 331.925C316.584 328.607 314.926 324.825 313.101 320.512C308.008 308.518 289.977 274.86 286.941 270C284.668 266.367 265.625 263.763 255.97 262.668" stroke="#071B49" stroke-linecap="round" stroke-linejoin="round"/>
<path d="M263.385 303.592C262.937 305.085 262.556 306.577 262.257 308.104" stroke="#071B49" stroke-linecap="round" stroke-linejoin="round"/>
<path d="M279.509 276.138C274.296 282.079 269.9 288.69 266.437 295.795" stroke="#071B49" stroke-linecap="round" stroke-linejoin="round"/>
<path d="M303.878 370.327C308.357 363.691 315.49 355.281 323.353 352.876" stroke="#071B49" stroke-linecap="round" stroke-linejoin="round"/>
<path d="M298.917 378.489C298.917 378.489 299.714 376.929 301.14 374.574" stroke="#071B49" stroke-linecap="round" stroke-linejoin="round"/>
<path d="M298.917 368.004C298.917 368.004 307.062 347.634 315.207 342.392C323.352 337.15 318.691 347.634 318.691 347.634" stroke="#071B49" stroke-linecap="round" stroke-linejoin="round"/>
<path d="M382.59 418.632C388.877 423.493 388.429 428.337 394.368 430.112C400.306 431.887 422.568 436.979 431.061 437.775C439.555 438.572 435.756 433.313 435.756 433.313L421.274 423.36L433.898 420.241C433.898 420.241 446.555 435.47 448.927 436.299C451.299 437.128 455.811 437.427 455.214 434.425C454.053 428.619 441.247 406.855 436.452 405.81C431.658 404.764 402.562 408.795 402.562 408.795C402.562 408.795 346.974 370.642 340.886 366.511C317.281 368.784 306.051 381.142 301.323 388.558L301.489 388.69C311.226 396.055 376.319 413.772 382.59 418.632Z" fill="white"/>
<path d="M455.197 434.491C452.178 427.109 441.23 406.921 436.436 405.876C431.642 404.831 402.545 408.862 402.545 408.862C402.545 408.862 346.957 370.709 340.87 366.578C334.674 367.117 328.595 368.588 322.838 370.941C331.613 375.917 390.104 409.094 397.486 410.571C405.316 412.229 431.442 407.933 436.037 411.019C438.957 412.976 447.649 426.761 453.522 436.548C455.197 436.299 455.811 435.984 455.197 434.491Z" fill="#FFB127"/>
<path opacity="0.5" d="M455.197 434.491C450.486 423.924 441.23 406.921 436.436 405.876C431.642 404.831 402.545 408.862 402.545 408.862C402.545 408.862 346.957 370.709 340.87 366.578C334.674 367.117 328.595 368.588 322.838 370.941C331.613 375.917 390.104 409.094 397.486 410.571C405.316 412.229 431.442 407.933 436.037 411.019C438.957 412.976 447.649 426.761 453.522 436.548C455.197 436.299 455.861 435.968 455.197 434.491Z" fill="white"/>
<path d="M382.59 418.632C388.877 423.493 388.429 428.337 394.368 430.112C400.306 431.887 422.568 436.979 431.061 437.775C439.555 438.572 435.756 433.313 435.756 433.313L421.274 423.36L433.898 420.241C433.898 420.241 446.555 435.47 448.927 436.299C451.299 437.128 455.811 437.427 455.214 434.425C454.053 428.619 441.247 406.855 436.453 405.81C431.658 404.764 402.562 408.795 402.562 408.795C402.562 408.795 346.974 370.642 340.886 366.511C317.281 368.784 306.051 381.142 301.323 388.558L301.489 388.69C311.226 396.055 376.319 413.772 382.59 418.632Z" stroke="#071B49" stroke-linecap="round" stroke-linejoin="round"/>
<path d="M235.981 128.965L186.017 149.817C185.411 158.598 183.237 167.199 179.597 175.213C173.691 187.705 177.142 211.343 182.815 224.1C188.488 236.856 213.487 231.863 222.627 230.27C228.826 229.091 234.898 227.319 240.758 224.979C243.427 226.007 246.313 226.34 249.145 225.945C251.978 225.55 254.663 224.441 256.949 222.723C256.949 222.723 230.208 147.66 235.981 128.965Z" fill="white"/>
<path d="M235.981 128.965L186.017 149.817C185.411 158.598 183.237 167.199 179.597 175.213C173.691 187.705 177.142 211.343 182.815 224.1C183.765 226.151 185.292 227.88 187.211 229.076V228.114C187.211 228.114 177.938 205.139 179.696 191.885C181.455 178.631 188.986 171.979 189.865 163.601C190.744 155.224 190.296 151.243 207.1 145.056C223.905 138.868 230.955 133.129 232.713 139.299C234.471 145.47 241.555 186.145 246.415 195.866C251.276 205.587 250.828 215.772 243.33 220.168C235.751 224.717 227.631 228.295 219.16 230.818L222.694 230.204C228.893 229.025 234.964 227.253 240.825 224.912C243.493 225.941 246.379 226.273 249.212 225.879C252.044 225.484 254.729 224.375 257.015 222.656C257.015 222.656 230.208 147.66 235.981 128.965Z" fill="#FFB127"/>
<path opacity="0.5" d="M235.981 128.965L186.017 149.817C185.411 158.598 183.237 167.199 179.597 175.213C173.691 187.705 177.142 211.343 182.815 224.1C183.765 226.151 185.292 227.88 187.211 229.076V228.114C187.211 228.114 177.938 205.139 179.696 191.885C181.455 178.631 188.986 171.979 189.865 163.601C190.744 155.224 190.296 151.243 207.1 145.056C223.905 138.868 230.955 133.129 232.713 139.299C234.471 145.47 241.555 186.145 246.415 195.866C251.276 205.587 250.828 215.772 243.33 220.168C235.751 224.717 227.631 228.295 219.16 230.818L222.694 230.204C228.893 229.025 234.964 227.253 240.825 224.912C243.493 225.941 246.379 226.273 249.212 225.879C252.044 225.484 254.729 224.375 257.015 222.656C257.015 222.656 230.208 147.66 235.981 128.965Z" fill="white"/>
<g filter="url(#filter1_d_188_364)">
<path d="M235.981 128.965L186.017 149.817C185.411 158.598 183.237 167.199 179.597 175.213C173.691 187.705 177.142 211.343 182.815 224.1C188.488 236.856 213.487 231.863 222.627 230.27C228.826 229.091 234.898 227.319 240.758 224.979C243.427 226.007 246.313 226.34 249.145 225.945C251.978 225.55 254.663 224.441 256.949 222.723C256.949 222.723 230.208 147.66 235.981 128.965Z" stroke="#071B49" stroke-linecap="round" stroke-linejoin="round" shape-rendering="crispEdges"/>
</g>
<path d="M257.679 236.906C257.679 240.771 255.489 243.906 252.802 243.906C250.114 243.906 247.941 240.771 247.941 236.906C247.941 233.041 250.114 223.204 252.802 223.204C255.489 223.204 257.679 233.041 257.679 236.906Z" fill="#FFB127" stroke="#071B49" stroke-linecap="round" stroke-linejoin="round"/>
<path d="M300.44 449.396H118.517L112.585 349.385C112.421 348.416 112.469 347.422 112.727 346.473C112.984 345.524 113.444 344.642 114.075 343.887C114.707 343.133 115.494 342.525 116.383 342.105C117.272 341.684 118.242 341.462 119.225 341.453H299.661C300.65 341.452 301.628 341.667 302.526 342.083C303.424 342.498 304.22 343.105 304.859 343.861C305.498 344.616 305.964 345.502 306.226 346.456C306.487 347.41 306.537 348.41 306.372 349.385L300.44 449.396Z" fill="#071B49" stroke="#071B49" stroke-linecap="round" stroke-linejoin="round"/>
<path d="M127.476 343.843H298.35C299.316 343.833 300.272 344.034 301.151 344.432C302.03 344.831 302.812 345.416 303.441 346.148C304.07 346.881 304.532 347.741 304.793 348.671C305.055 349.6 305.11 350.575 304.955 351.528" stroke="white" stroke-linecap="round" stroke-linejoin="round"/>
<path d="M113.913 349.952C114.056 348.278 114.824 346.72 116.064 345.588C117.305 344.455 118.927 343.832 120.606 343.843" stroke="white" stroke-linecap="round" stroke-linejoin="round"/>
<path d="M219.548 396.554C220.882 395.287 221.839 393.662 222.308 391.866C222.778 390.07 222.742 388.176 222.204 386.4C221.666 384.624 220.648 383.038 219.267 381.824C217.886 380.61 216.197 379.817 214.393 379.535C212.59 379.254 210.746 379.496 209.071 380.233C207.396 380.97 205.959 382.173 204.924 383.703C203.889 385.234 203.299 387.031 203.219 388.887C203.14 390.744 203.576 392.586 204.476 394.203L202.503 396.078L202.975 399.424L199.908 398.544L197.439 400.9L197.911 404.243L194.844 403.367L192.717 405.39L193.004 407.446L191.135 406.915L189.897 408.091L189.711 411.187L194.243 412.346L208.951 398.368C210.697 399.162 212.633 399.413 214.518 399.091C216.403 398.768 218.153 397.886 219.548 396.554ZM218.111 384.381C218.488 384.791 218.736 385.307 218.825 385.861C218.914 386.416 218.84 386.985 218.611 387.497C218.383 388.008 218.01 388.439 217.541 388.735C217.072 389.031 216.528 389.179 215.976 389.159C215.425 389.139 214.892 388.954 214.444 388.625C213.996 388.297 213.654 387.841 213.461 387.314C213.268 386.787 213.233 386.214 213.359 385.667C213.486 385.12 213.769 384.624 214.173 384.241C214.44 383.986 214.754 383.788 215.097 383.657C215.44 383.526 215.805 383.466 216.171 383.479C216.536 383.492 216.896 383.578 217.229 383.733C217.562 383.888 217.862 384.108 218.111 384.381Z" fill="#F8F8F8"/>
</g>
<defs>
<filter id="filter0_d_188_364" x="-207.821" y="-91.2445" width="813.879" height="618.514" filterUnits="userSpaceOnUse" color-interpolation-filters="sRGB">
<feFlood flood-opacity="0" result="BackgroundImageFix"/>
<feColorMatrix in="SourceAlpha" type="matrix" values="0 0 0 0 0 0 0 0 0 0 0 0 0 0 0 0 0 0 127 0" result="hardAlpha"/>
<feOffset dy="4"/>
<feGaussianBlur stdDeviation="2"/>
<feComposite in2="hardAlpha" operator="out"/>
<feColorMatrix type="matrix" values="0 0 0 0 0 0 0 0 0 0 0 0 0 0 0 0 0 0 0.25 0"/>
<feBlend mode="normal" in2="BackgroundImageFix" result="effect1_dropShadow_188_364"/>
<feBlend mode="normal" in="SourceGraphic" in2="effect1_dropShadow_188_364" result="shape"/>
</filter>
<filter id="filter1_d_188_364" x="172.023" y="128.465" width="89.426" height="112.61" filterUnits="userSpaceOnUse" color-interpolation-filters="sRGB">
<feFlood flood-opacity="0" result="BackgroundImageFix"/>
<feColorMatrix in="SourceAlpha" type="matrix" values="0 0 0 0 0 0 0 0 0 0 0 0 0 0 0 0 0 0 127 0" result="hardAlpha"/>
<feOffset dy="4"/>
<feGaussianBlur stdDeviation="2"/>
<feComposite in2="hardAlpha" operator="out"/>
<feColorMatrix type="matrix" values="0 0 0 0 0 0 0 0 0 0 0 0 0 0 0 0 0 0 0.25 0"/>
<feBlend mode="normal" in2="BackgroundImageFix" result="effect1_dropShadow_188_364"/>
<feBlend mode="normal" in="SourceGraphic" in2="effect1_dropShadow_188_364" result="shape"/>
</filter>
</defs>
</svg>
