<svg width="383" height="383" viewBox="0 0 383 383" fill="none" xmlns="http://www.w3.org/2000/svg">
<mask id="mask0_85_3016" style="mask-type:alpha" maskUnits="userSpaceOnUse" x="0" y="0" width="383" height="383">
<circle cx="191.5" cy="191.5" r="191.5" fill="#C4C4C4"/>
</mask>
<g mask="url(#mask0_85_3016)">
<path opacity="0.1" d="M487.193 240.734C487.193 240.734 568.998 184.149 555.832 62.5507C542.666 -59.0474 440.349 -165.331 337.999 -210.217C235.65 -255.103 153.466 -169.846 74.1316 -148.211C-5.20282 -126.576 -62.6545 -177.097 -139.169 -108.242C-215.684 -39.3869 -213.954 41.8711 -180.719 109.37C-147.484 176.868 -88.9965 217.147 -56.0165 275.522C-23.0365 333.897 17.4902 419.236 117.304 475.599C217.118 531.961 319.865 474.986 382.109 405.851C444.353 336.716 440.067 278.778 487.193 240.734Z" fill="#EAB700"/>
<path opacity="0.1" d="M501.32 -38.5645C501.32 -38.5645 508.677 -137.761 405.793 -203.898C302.908 -270.036 155.938 -257.185 56.7222 -205.742C-42.4937 -154.3 -27.7791 -36.7988 -60.7791 38.5205C-93.7792 113.84 -169.177 126.808 -163.664 229.595C-158.151 332.382 -93.838 382.078 -20.4414 398.617C52.9552 415.156 121.035 394.948 187.172 405.955C253.31 416.961 345.168 439.033 451.722 396.773C558.275 354.513 578.484 238.777 563.789 146.918C549.094 55.0598 501.32 22.0009 501.32 -38.5645Z" fill="#EAB700"/>
<path d="M192.747 177.352V-2.2257H261.082V-77.7805" stroke="#333333" stroke-miterlimit="10"/>
<path d="M197.848 205.977H512.467V161.244H572.601" stroke="#333333" stroke-miterlimit="10"/>
<path d="M182.427 204.427H-116.751V156.633H-181.515" stroke="#333333" stroke-miterlimit="10"/>
<path d="M131.534 -125.593V-57.7294H92.9817V-14.5664H140.794V130.402" stroke="#333333" stroke-miterlimit="10"/>
<path d="M342.817 74.8789V-22.2769H369.029V-63.9095H390.63" stroke="#333333" stroke-miterlimit="10"/>
<path d="M25.1375 65.6381V-8.38637L3.53638 -29.9875V-83.9608" stroke="#333333" stroke-miterlimit="10"/>
<path d="M140.724 316.412V356.514H114.513V401.246H38.9382" stroke="#333333" stroke-miterlimit="10"/>
<path d="M218.265 346.019V387.652H278.399V370.7H295.37V406.153H347.813" stroke="#333333" stroke-miterlimit="10"/>
<path d="M193.375 44.9003C172.46 64.5198 118.821 84.1393 56.4109 125.909C56.4109 125.909 60.3348 267.17 193.375 344.294V44.9003Z" fill="#EAB700" stroke="#333333" stroke-linecap="round" stroke-linejoin="round"/>
<path d="M193.375 44.9003C214.309 64.5198 267.929 84.1393 330.358 125.909C330.358 125.909 326.435 267.17 193.375 344.294V44.9003Z" fill="#333333" stroke="#333333" stroke-linecap="round" stroke-linejoin="round"/>
<path d="M193.375 56.9272C168.066 74.4671 124.334 91.1633 66.4561 129.892C66.4561 129.892 70.0856 260.754 193.375 332.287C316.683 260.754 320.313 129.892 320.313 129.892C262.435 91.1633 218.841 74.4671 193.375 56.9272Z" fill="#333333" stroke="#333333" stroke-linecap="round" stroke-linejoin="round"/>
<path d="M320.313 129.892C262.436 91.1829 218.841 74.4671 193.375 56.9272V332.287C316.684 260.754 320.313 129.892 320.313 129.892Z" fill="#EAB700" stroke="#333333" stroke-linecap="round" stroke-linejoin="round"/>
<path d="M425.513 199.169H-40.0186V229.304H425.513V199.169Z" fill="#333333" stroke="#333333" stroke-linecap="round" stroke-linejoin="round"/>
<path d="M5.83171 203.956C5.8434 204.575 5.67044 205.184 5.33485 205.705C4.99925 206.225 4.51624 206.634 3.94736 206.879C3.37847 207.125 2.74946 207.195 2.14051 207.081C1.53156 206.967 0.97022 206.675 0.528042 206.241C0.0858643 205.807 -0.217132 205.252 -0.342346 204.645C-0.467561 204.038 -0.409308 203.408 -0.175028 202.835C0.0592507 202.261 0.458948 201.771 0.973145 201.425C1.48734 201.08 2.09275 200.895 2.71222 200.895C3.11837 200.89 3.52153 200.965 3.8985 201.116C4.27547 201.268 4.61882 201.492 4.90875 201.776C5.19869 202.061 5.4295 202.4 5.5879 202.774C5.74631 203.148 5.82916 203.55 5.83171 203.956Z" fill="white"/>
<path d="M0.907715 205.643C1.252 205.999 1.69393 206.246 2.17791 206.351C2.6619 206.457 3.16632 206.417 3.6277 206.237C4.08908 206.056 4.4868 205.743 4.77085 205.338C5.05489 204.932 5.21255 204.451 5.224 203.956C5.21737 203.367 4.99383 202.801 4.59616 202.367C3.2939 203.374 2.0616 204.469 0.907715 205.643Z" fill="#333333"/>
<path d="M18.0551 203.956C18.0668 204.575 17.8938 205.184 17.5582 205.705C17.2226 206.225 16.7396 206.634 16.1707 206.879C15.6019 207.125 14.9728 207.195 14.3639 207.081C13.7549 206.967 13.1936 206.675 12.7515 206.241C12.3093 205.807 12.0063 205.252 11.881 204.645C11.7558 204.038 11.8141 203.408 12.0484 202.835C12.2826 202.261 12.6823 201.771 13.1965 201.425C13.7107 201.08 14.3161 200.895 14.9356 200.895C15.3418 200.89 15.7449 200.965 16.1219 201.116C16.4989 201.268 16.8422 201.492 17.1321 201.776C17.4221 202.061 17.6529 202.4 17.8113 202.774C17.9697 203.148 18.0525 203.55 18.0551 203.956Z" fill="white"/>
<path d="M13.0715 205.643C13.3064 205.884 13.587 206.076 13.8969 206.207C14.2069 206.339 14.5399 206.407 14.8765 206.408C15.2028 206.413 15.5269 206.354 15.8301 206.233C16.1333 206.113 16.4096 205.933 16.643 205.705C16.8765 205.477 17.0625 205.205 17.1903 204.905C17.3182 204.605 17.3853 204.282 17.3878 203.956C17.3812 203.367 17.1577 202.801 16.76 202.367C15.4619 203.379 14.2299 204.473 13.0715 205.643Z" fill="#333333"/>
<path d="M30.2778 203.956C30.2895 204.575 30.1165 205.184 29.7809 205.705C29.4453 206.225 28.9623 206.634 28.3934 206.879C27.8245 207.125 27.1955 207.195 26.5866 207.081C25.9776 206.967 25.4163 206.675 24.9741 206.241C24.5319 205.807 24.2289 205.252 24.1037 204.645C23.9785 204.038 24.0367 203.408 24.271 202.835C24.5053 202.261 24.905 201.771 25.4192 201.425C25.9334 201.08 26.5388 200.895 27.1582 200.895C27.5644 200.89 27.9676 200.965 28.3446 201.116C28.7215 201.268 29.0648 201.492 29.3548 201.776C29.6447 202.061 29.8755 202.4 30.0339 202.774C30.1923 203.148 30.2752 203.55 30.2778 203.956Z" fill="white"/>
<path d="M25.373 205.643C25.7146 206.002 26.1554 206.251 26.6392 206.358C27.123 206.465 27.6278 206.426 28.089 206.245C28.5502 206.064 28.9469 205.749 29.2285 205.341C29.5101 204.934 29.6637 204.451 29.6697 203.956C29.6631 203.367 29.4396 202.801 29.0419 202.367C27.7457 203.374 26.52 204.469 25.373 205.643Z" fill="#333333"/>
<path d="M42.5009 203.956C42.5165 204.58 42.3457 205.194 42.0104 205.721C41.6751 206.247 41.1905 206.662 40.6184 206.911C40.0464 207.161 39.4129 207.234 38.7989 207.122C38.1849 207.01 37.6182 206.717 37.1713 206.282C36.7244 205.846 36.4176 205.287 36.29 204.676C36.1623 204.065 36.2197 203.43 36.4548 202.852C36.69 202.274 37.0921 201.779 37.6099 201.43C38.1277 201.082 38.7376 200.895 39.3618 200.895C39.7689 200.89 40.173 200.965 40.5511 201.116C40.9292 201.267 41.2738 201.491 41.5653 201.775C41.8568 202.059 42.0895 202.398 42.25 202.772C42.4105 203.146 42.4958 203.549 42.5009 203.956Z" fill="white"/>
<path d="M37.5957 205.643C37.9373 206.002 38.3781 206.251 38.8619 206.358C39.3457 206.465 39.8504 206.426 40.3116 206.245C40.7729 206.064 41.1696 205.749 41.4512 205.341C41.7328 204.934 41.8864 204.451 41.8924 203.956C41.8858 203.367 41.6622 202.801 41.2645 202.367C39.9726 203.379 38.7471 204.473 37.5957 205.643Z" fill="#333333"/>
<path d="M54.7431 203.956C54.7548 204.575 54.5818 205.184 54.2462 205.705C53.9106 206.225 53.4276 206.634 52.8587 206.879C52.2898 207.125 51.6608 207.195 51.0519 207.081C50.4429 206.967 49.8816 206.675 49.4394 206.241C48.9972 205.807 48.6943 205.252 48.569 204.645C48.4438 204.038 48.502 203.408 48.7363 202.835C48.9706 202.261 49.3703 201.771 49.8845 201.425C50.3987 201.08 51.0041 200.895 51.6236 200.895C52.0297 200.89 52.4329 200.965 52.8099 201.116C53.1869 201.268 53.5302 201.492 53.8201 201.776C54.11 202.061 54.3409 202.4 54.4993 202.774C54.6577 203.148 54.7405 203.55 54.7431 203.956Z" fill="white"/>
<path d="M49.8191 205.643C50.0533 205.885 50.3338 206.078 50.6439 206.209C50.9539 206.34 51.2873 206.408 51.6241 206.408C51.9487 206.411 52.2707 206.349 52.5716 206.227C52.8725 206.106 53.1465 205.926 53.3779 205.698C53.6093 205.47 53.7935 205.199 53.9201 204.9C54.0467 204.601 54.1132 204.28 54.1158 203.956C54.1168 203.365 53.8922 202.797 53.488 202.367C52.196 203.379 50.9705 204.473 49.8191 205.643Z" fill="#333333"/>
<path d="M66.9665 203.956C66.9782 204.575 66.8052 205.184 66.4696 205.705C66.134 206.225 65.651 206.634 65.0821 206.879C64.5132 207.125 63.8842 207.195 63.2753 207.081C62.6663 206.967 62.105 206.675 61.6628 206.241C61.2206 205.807 60.9176 205.252 60.7924 204.645C60.6672 204.038 60.7255 203.408 60.9597 202.835C61.194 202.261 61.5937 201.771 62.1079 201.425C62.6221 201.08 63.2275 200.895 63.847 200.895C64.2531 200.89 64.6563 200.965 65.0333 201.116C65.4102 201.268 65.7536 201.492 66.0435 201.776C66.3335 202.061 66.5643 202.4 66.7227 202.774C66.8811 203.148 66.9639 203.55 66.9665 203.956Z" fill="white"/>
<path d="M62.1201 205.643C62.4644 205.999 62.9063 206.246 63.3903 206.351C63.8743 206.457 64.3787 206.417 64.8401 206.237C65.3015 206.056 65.6992 205.743 65.9832 205.338C66.2673 204.932 66.425 204.451 66.4364 203.956C66.4298 203.367 66.2063 202.801 65.8086 202.367C64.5105 203.379 63.2785 204.473 62.1201 205.643Z" fill="#333333"/>
<path d="M79.1891 203.956C79.2008 204.575 79.0279 205.184 78.6923 205.705C78.3567 206.225 77.8737 206.634 77.3048 206.879C76.7359 207.125 76.1069 207.195 75.4979 207.081C74.889 206.967 74.3276 206.675 73.8855 206.241C73.4433 205.807 73.1403 205.252 73.0151 204.645C72.8899 204.038 72.9481 203.408 73.1824 202.835C73.4167 202.261 73.8164 201.771 74.3306 201.425C74.8448 201.08 75.4502 200.895 76.0696 200.895C76.4758 200.89 76.8789 200.965 77.2559 201.116C77.6329 201.268 77.9762 201.492 78.2662 201.776C78.5561 202.061 78.7869 202.4 78.9453 202.774C79.1037 203.148 79.1866 203.55 79.1891 203.956Z" fill="white"/>
<path d="M74.2644 205.643C74.4993 205.884 74.7799 206.076 75.0898 206.207C75.3997 206.339 75.7328 206.407 76.0694 206.408C76.3957 206.413 76.7197 206.354 77.0229 206.233C77.3261 206.113 77.6024 205.933 77.8359 205.705C78.0693 205.477 78.2553 205.205 78.3832 204.905C78.511 204.605 78.5781 204.282 78.5807 203.956C78.5741 203.367 78.3505 202.801 77.9529 202.367C76.6548 203.379 75.4228 204.473 74.2644 205.643Z" fill="#333333"/>
<path d="M91.4125 203.956C91.4242 204.575 91.2512 205.184 90.9156 205.705C90.58 206.225 90.097 206.634 89.5281 206.879C88.9593 207.125 88.3302 207.195 87.7213 207.081C87.1123 206.967 86.551 206.675 86.1089 206.241C85.6667 205.807 85.3637 205.252 85.2385 204.645C85.1133 204.038 85.1715 203.408 85.4058 202.835C85.64 202.261 86.0397 201.771 86.5539 201.425C87.0681 201.08 87.6735 200.895 88.293 200.895C88.6992 200.89 89.1023 200.965 89.4793 201.116C89.8563 201.268 90.1996 201.492 90.4895 201.776C90.7795 202.061 91.0103 202.4 91.1687 202.774C91.3271 203.148 91.4099 203.55 91.4125 203.956Z" fill="white"/>
<path d="M86.5073 205.643C86.8489 206.002 87.2897 206.251 87.7735 206.358C88.2573 206.465 88.762 206.426 89.2233 206.245C89.6845 206.064 90.0812 205.749 90.3628 205.341C90.6444 204.934 90.798 204.451 90.804 203.956C90.7974 203.367 90.5739 202.801 90.1762 202.367C88.8843 203.379 87.6588 204.473 86.5073 205.643Z" fill="#333333"/>
<path d="M103.655 203.956C103.671 204.58 103.5 205.196 103.163 205.723C102.827 206.249 102.341 206.664 101.768 206.913C101.195 207.162 100.56 207.235 99.9459 207.121C99.3313 207.007 98.7647 206.713 98.3186 206.275C97.8725 205.837 97.5672 205.276 97.4418 204.664C97.3164 204.052 97.3766 203.416 97.6147 202.838C97.8529 202.26 98.2581 201.767 98.7784 201.42C99.2988 201.074 99.9107 200.891 100.536 200.895C100.942 200.89 101.345 200.965 101.722 201.116C102.099 201.268 102.442 201.492 102.732 201.776C103.022 202.061 103.253 202.4 103.411 202.774C103.57 203.148 103.653 203.55 103.655 203.956Z" fill="white"/>
<path d="M98.7305 205.643C99.072 206.002 99.5128 206.251 99.9966 206.358C100.48 206.465 100.985 206.426 101.446 206.245C101.908 206.064 102.304 205.749 102.586 205.341C102.868 204.934 103.021 204.451 103.027 203.956C103.028 203.365 102.804 202.797 102.399 202.367C101.107 203.379 99.8819 204.473 98.7305 205.643Z" fill="#333333"/>
<path d="M115.878 203.956C115.89 204.575 115.717 205.184 115.381 205.705C115.045 206.225 114.562 206.634 113.993 206.879C113.425 207.125 112.796 207.195 112.187 207.081C111.578 206.967 111.016 206.675 110.574 206.241C110.132 205.807 109.829 205.252 109.704 204.645C109.579 204.038 109.637 203.408 109.871 202.835C110.105 202.261 110.505 201.771 111.019 201.425C111.533 201.08 112.139 200.895 112.758 200.895C113.165 200.89 113.568 200.965 113.945 201.116C114.322 201.268 114.665 201.492 114.955 201.776C115.245 202.061 115.476 202.4 115.634 202.774C115.792 203.148 115.875 203.55 115.878 203.956Z" fill="white"/>
<path d="M110.953 205.643C111.297 205.999 111.739 206.246 112.223 206.351C112.707 206.457 113.212 206.417 113.673 206.237C114.134 206.056 114.532 205.743 114.816 205.338C115.1 204.932 115.258 204.451 115.269 203.956C115.263 203.367 115.039 202.801 114.642 202.367C113.339 203.374 112.107 204.469 110.953 205.643Z" fill="#333333"/>
<path d="M128.101 203.956C128.112 204.575 127.939 205.184 127.604 205.705C127.268 206.225 126.785 206.634 126.216 206.879C125.647 207.125 125.018 207.195 124.409 207.081C123.8 206.967 123.239 206.675 122.797 206.241C122.355 205.807 122.052 205.252 121.926 204.645C121.801 204.038 121.859 203.408 122.094 202.835C122.328 202.261 122.728 201.771 123.242 201.425C123.756 201.08 124.362 200.895 124.981 200.895C125.387 200.89 125.79 200.965 126.167 201.116C126.544 201.268 126.888 201.492 127.178 201.776C127.467 202.061 127.698 202.4 127.857 202.774C128.015 203.148 128.098 203.55 128.101 203.956Z" fill="white"/>
<path d="M123.177 205.643C123.411 205.884 123.692 206.076 124.002 206.207C124.312 206.339 124.645 206.407 124.982 206.408C125.308 206.413 125.632 206.354 125.935 206.233C126.238 206.113 126.515 205.933 126.748 205.705C126.981 205.477 127.167 205.205 127.295 204.905C127.423 204.605 127.49 204.282 127.493 203.956C127.486 203.367 127.263 202.801 126.865 202.367C125.567 203.379 124.335 204.473 123.177 205.643Z" fill="#333333"/>
<path d="M5.83202 223.399C5.84763 224.019 5.67801 224.63 5.34486 225.153C5.01171 225.676 4.53014 226.088 3.96168 226.336C3.39321 226.584 2.76368 226.657 2.15348 226.546C1.54328 226.435 0.980111 226.144 0.535956 225.711C0.0918005 225.278 -0.213196 224.722 -0.340061 224.115C-0.466926 223.508 -0.409901 222.877 -0.176275 222.302C0.0573499 221.728 0.456978 221.236 0.971539 220.889C1.4861 220.543 2.09225 220.358 2.71253 220.358C3.11704 220.353 3.51862 220.427 3.89432 220.577C4.27002 220.727 4.6125 220.95 4.90218 221.232C5.19186 221.515 5.42307 221.851 5.58262 222.223C5.74216 222.595 5.8269 222.994 5.83202 223.399Z" fill="white"/>
<path d="M0.907715 225.106C1.25318 225.463 1.69688 225.71 2.18264 225.815C2.6684 225.92 3.17439 225.878 3.63653 225.695C4.09868 225.513 4.49619 225.197 4.77878 224.788C5.06137 224.379 5.21632 223.896 5.224 223.399C5.21259 222.817 4.98937 222.259 4.59616 221.829C3.2939 222.837 2.0616 223.931 0.907715 225.106Z" fill="#333333"/>
<path d="M18.0551 223.399C18.0707 224.019 17.9012 224.63 17.568 225.153C17.2348 225.676 16.7533 226.088 16.1848 226.336C15.6164 226.584 14.9868 226.657 14.3766 226.546C13.7664 226.435 13.2033 226.144 12.7591 225.711C12.3149 225.278 12.0099 224.722 11.8831 224.115C11.7562 223.508 11.8132 222.877 12.0469 222.302C12.2805 221.728 12.6801 221.236 13.1947 220.889C13.7092 220.543 14.3154 220.358 14.9356 220.358C15.3402 220.353 15.7417 220.427 16.1174 220.577C16.4931 220.727 16.8356 220.95 17.1253 221.232C17.415 221.515 17.6462 221.851 17.8057 222.223C17.9653 222.595 18.05 222.994 18.0551 223.399Z" fill="white"/>
<path d="M13.0715 225.106C13.3064 225.347 13.587 225.539 13.8969 225.67C14.2069 225.801 14.5399 225.87 14.8765 225.871C15.2037 225.873 15.5283 225.812 15.8315 225.689C16.1348 225.566 16.411 225.384 16.6442 225.155C16.8774 224.925 17.0631 224.652 17.1907 224.351C17.3183 224.049 17.3853 223.726 17.3878 223.399C17.3764 222.817 17.1532 222.259 16.76 221.829C15.4619 222.842 14.2299 223.936 13.0715 225.106Z" fill="#333333"/>
<path d="M30.2778 223.399C30.2934 224.019 30.1238 224.63 29.7907 225.153C29.4575 225.676 28.9759 226.088 28.4075 226.336C27.839 226.584 27.2095 226.657 26.5993 226.546C25.9891 226.435 25.4259 226.144 24.9818 225.711C24.5376 225.278 24.2326 224.722 24.1057 224.115C23.9789 223.508 24.0359 222.877 24.2695 222.302C24.5032 221.728 24.9028 221.236 25.4173 220.889C25.9319 220.543 26.538 220.358 27.1583 220.358C27.5628 220.353 27.9644 220.427 28.3401 220.577C28.7158 220.727 29.0583 220.95 29.3479 221.232C29.6376 221.515 29.8688 221.851 30.0284 222.223C30.1879 222.595 30.2727 222.994 30.2778 223.399Z" fill="white"/>
<path d="M25.373 225.106C25.6028 225.348 25.8797 225.541 26.1867 225.673C26.4937 225.804 26.8244 225.872 27.1584 225.871C27.4856 225.873 27.8102 225.812 28.1135 225.689C28.4167 225.566 28.6929 225.384 28.9261 225.155C29.1593 224.925 29.345 224.652 29.4726 224.351C29.6002 224.049 29.6672 223.726 29.6697 223.399C29.6583 222.817 29.4351 222.259 29.0419 221.829C27.7457 222.837 26.52 223.931 25.373 225.106Z" fill="#333333"/>
<path d="M42.5003 223.399C42.5199 224.023 42.3525 224.64 42.0197 225.169C41.6868 225.698 41.2036 226.115 40.632 226.368C40.0604 226.621 39.4264 226.697 38.8112 226.587C38.1959 226.477 37.6274 226.186 37.1786 225.752C36.7297 225.317 36.4208 224.758 36.2915 224.146C36.1622 223.535 36.2184 222.899 36.4529 222.319C36.6873 221.74 37.0893 221.244 37.6075 220.894C38.1256 220.545 38.7362 220.358 39.3612 220.358C40.18 220.347 40.9697 220.661 41.5579 221.231C42.1461 221.801 42.4849 222.58 42.5003 223.399Z" fill="white"/>
<path d="M37.5957 225.106C37.8255 225.348 38.1024 225.541 38.4094 225.673C38.7164 225.804 39.0471 225.872 39.3811 225.871C39.7083 225.873 40.0328 225.812 40.3361 225.689C40.6394 225.566 40.9155 225.384 41.1487 225.155C41.3819 224.925 41.5676 224.652 41.6952 224.351C41.8228 224.049 41.8898 223.726 41.8924 223.399C41.881 222.817 41.6578 222.259 41.2645 221.829C39.9726 222.842 38.7471 223.936 37.5957 225.106Z" fill="#333333"/>
<path d="M54.7434 223.399C54.759 224.019 54.5894 224.63 54.2562 225.153C53.9231 225.676 53.4415 226.088 52.8731 226.336C52.3046 226.584 51.675 226.657 51.0648 226.546C50.4546 226.435 49.8915 226.144 49.4473 225.711C49.0032 225.278 48.6982 224.722 48.5713 224.115C48.4445 223.508 48.5015 222.877 48.7351 222.302C48.9687 221.728 49.3684 221.236 49.8829 220.889C50.3975 220.543 51.0036 220.358 51.6239 220.358C52.0284 220.353 52.43 220.427 52.8057 220.577C53.1814 220.727 53.5238 220.95 53.8135 221.232C54.1032 221.515 54.3344 221.851 54.494 222.223C54.6535 222.595 54.7383 222.994 54.7434 223.399Z" fill="white"/>
<path d="M49.8191 225.106C50.1618 225.466 50.6044 225.715 51.09 225.822C51.5756 225.928 52.082 225.887 52.544 225.704C53.0061 225.52 53.4026 225.203 53.6827 224.792C53.9628 224.381 54.1136 223.896 54.1158 223.399C54.1138 222.815 53.8893 222.253 53.488 221.829C52.196 222.842 50.9705 223.936 49.8191 225.106Z" fill="#333333"/>
<path d="M66.9661 223.399C66.9817 224.019 66.812 224.63 66.4789 225.153C66.1457 225.676 65.6642 226.088 65.0957 226.336C64.5272 226.584 63.8977 226.657 63.2875 226.546C62.6773 226.435 62.1141 226.144 61.67 225.711C61.2258 225.278 60.9208 224.722 60.794 224.115C60.6671 223.508 60.7241 222.877 60.9578 222.302C61.1914 221.728 61.591 221.236 62.1056 220.889C62.6201 220.543 63.2263 220.358 63.8466 220.358C64.2511 220.353 64.6527 220.427 65.0284 220.577C65.4041 220.727 65.7465 220.95 66.0362 221.232C66.3259 221.515 66.5571 221.851 66.7166 222.223C66.8762 222.595 66.9609 222.994 66.9661 223.399Z" fill="white"/>
<path d="M62.1201 225.106C62.4656 225.463 62.9093 225.71 63.395 225.815C63.8808 225.92 64.3868 225.878 64.8489 225.695C65.3111 225.513 65.7086 225.197 65.9912 224.788C66.2738 224.379 66.4287 223.896 66.4364 223.399C66.425 222.817 66.2018 222.259 65.8086 221.829C64.5105 222.842 63.2785 223.936 62.1201 225.106Z" fill="#333333"/>
<path d="M79.1892 223.399C79.2048 224.019 79.0352 224.63 78.7021 225.153C78.3689 225.676 77.8873 226.088 77.3189 226.336C76.7504 226.584 76.1209 226.657 75.5107 226.546C74.9005 226.435 74.3373 226.144 73.8931 225.711C73.449 225.278 73.144 224.722 73.0171 224.115C72.8903 223.508 72.9473 222.877 73.1809 222.302C73.4145 221.728 73.8142 221.236 74.3287 220.889C74.8433 220.543 75.4494 220.358 76.0697 220.358C76.4742 220.353 76.8758 220.427 77.2515 220.577C77.6272 220.727 77.9697 220.95 78.2594 221.232C78.549 221.515 78.7802 221.851 78.9398 222.223C79.0993 222.595 79.1841 222.994 79.1892 223.399Z" fill="white"/>
<path d="M74.2644 225.106C74.4993 225.347 74.7799 225.539 75.0898 225.67C75.3997 225.801 75.7328 225.87 76.0694 225.871C76.3966 225.873 76.7211 225.812 77.0244 225.689C77.3277 225.566 77.6039 225.384 77.8371 225.155C78.0703 224.925 78.2559 224.652 78.3835 224.351C78.5111 224.049 78.5781 223.726 78.5807 223.399C78.5693 222.817 78.3461 222.259 77.9529 221.829C76.6548 222.842 75.4228 223.936 74.2644 225.106Z" fill="#333333"/>
<path d="M91.4121 223.399C91.4277 224.019 91.2581 224.63 90.9249 225.153C90.5918 225.676 90.1102 226.088 89.5418 226.336C88.9733 226.584 88.3437 226.657 87.7335 226.546C87.1233 226.435 86.5602 226.144 86.116 225.711C85.6719 225.278 85.3669 224.722 85.24 224.115C85.1132 223.508 85.1702 222.877 85.4038 222.302C85.6374 221.728 86.037 221.236 86.5516 220.889C87.0661 220.543 87.6723 220.358 88.2926 220.358C88.6971 220.353 89.0987 220.427 89.4744 220.577C89.8501 220.727 90.1925 220.95 90.4822 221.232C90.7719 221.515 91.0031 221.851 91.1627 222.223C91.3222 222.595 91.4069 222.994 91.4121 223.399Z" fill="white"/>
<path d="M86.5073 225.106C86.7371 225.348 87.014 225.541 87.321 225.673C87.628 225.804 87.9587 225.872 88.2927 225.871C88.6199 225.873 88.9445 225.812 89.2478 225.689C89.5511 225.566 89.8272 225.384 90.0604 225.155C90.2936 224.925 90.4793 224.652 90.6069 224.351C90.7345 224.049 90.8014 223.726 90.804 223.399C90.7926 222.817 90.5694 222.259 90.1762 221.829C88.8843 222.842 87.6588 223.936 86.5073 225.106Z" fill="#333333"/>
<path d="M103.655 223.399C103.675 224.024 103.507 224.641 103.173 225.171C102.839 225.7 102.355 226.118 101.782 226.37C101.21 226.622 100.574 226.697 99.9587 226.586C99.3429 226.474 98.7744 226.181 98.3263 225.745C97.8782 225.308 97.5709 224.747 97.4438 224.134C97.3167 223.521 97.3757 222.885 97.6132 222.306C97.8507 221.727 98.2558 221.232 98.7765 220.885C99.2972 220.538 99.9098 220.354 100.536 220.358C100.94 220.353 101.342 220.427 101.717 220.577C102.093 220.727 102.436 220.95 102.725 221.232C103.015 221.515 103.246 221.851 103.406 222.223C103.565 222.595 103.65 222.994 103.655 223.399Z" fill="white"/>
<path d="M98.7305 225.106C99.0732 225.466 99.5158 225.715 100.001 225.822C100.487 225.928 100.993 225.887 101.455 225.704C101.917 225.52 102.314 225.203 102.594 224.792C102.874 224.381 103.025 223.896 103.027 223.399C103.025 222.815 102.801 222.253 102.399 221.829C101.107 222.842 99.8819 223.936 98.7305 225.106Z" fill="#333333"/>
<path d="M115.878 223.399C115.893 224.019 115.724 224.63 115.391 225.153C115.058 225.676 114.576 226.088 114.008 226.336C113.439 226.584 112.81 226.657 112.199 226.546C111.589 226.435 111.026 226.144 110.582 225.711C110.138 225.278 109.833 224.722 109.706 224.115C109.579 223.508 109.636 222.877 109.87 222.302C110.103 221.728 110.503 221.236 111.017 220.889C111.532 220.543 112.138 220.358 112.758 220.358C113.163 220.353 113.564 220.427 113.94 220.577C114.316 220.727 114.658 220.95 114.948 221.232C115.238 221.515 115.469 221.851 115.628 222.223C115.788 222.595 115.873 222.994 115.878 223.399Z" fill="white"/>
<path d="M110.953 225.106C111.299 225.463 111.742 225.71 112.228 225.815C112.714 225.92 113.22 225.878 113.682 225.695C114.144 225.513 114.542 225.197 114.824 224.788C115.107 224.379 115.262 223.896 115.269 223.399C115.258 222.817 115.035 222.259 114.642 221.829C113.339 222.837 112.107 223.931 110.953 225.106Z" fill="#333333"/>
<path d="M128.101 223.399C128.116 224.019 127.947 224.63 127.614 225.153C127.281 225.676 126.799 226.088 126.23 226.336C125.662 226.584 125.032 226.657 124.422 226.546C123.812 226.435 123.249 226.144 122.805 225.711C122.361 225.278 122.056 224.722 121.929 224.115C121.802 223.508 121.859 222.877 122.093 222.302C122.326 221.728 122.726 221.236 123.24 220.889C123.755 220.543 124.361 220.358 124.981 220.358C125.386 220.353 125.787 220.427 126.163 220.577C126.539 220.727 126.881 220.95 127.171 221.232C127.461 221.515 127.692 221.851 127.851 222.223C128.011 222.595 128.096 222.994 128.101 223.399Z" fill="white"/>
<path d="M123.177 225.106C123.411 225.347 123.692 225.539 124.002 225.67C124.312 225.801 124.645 225.87 124.982 225.871C125.309 225.873 125.633 225.812 125.937 225.689C126.24 225.566 126.516 225.384 126.749 225.155C126.982 224.925 127.168 224.652 127.296 224.351C127.423 224.049 127.49 223.726 127.493 223.399C127.481 222.817 127.258 222.259 126.865 221.829C125.567 222.842 124.335 223.936 123.177 225.106Z" fill="#333333"/>
<path d="M263.573 203.956C263.585 204.575 263.412 205.184 263.077 205.705C262.741 206.225 262.258 206.634 261.689 206.879C261.12 207.125 260.491 207.195 259.882 207.081C259.273 206.967 258.712 206.675 258.27 206.241C257.828 205.807 257.525 205.252 257.399 204.645C257.274 204.038 257.332 203.408 257.567 202.835C257.801 202.261 258.201 201.771 258.715 201.425C259.229 201.08 259.834 200.895 260.454 200.895C260.86 200.89 261.263 200.965 261.64 201.116C262.017 201.268 262.36 201.492 262.65 201.776C262.94 202.061 263.171 202.4 263.33 202.774C263.488 203.148 263.571 203.55 263.573 203.956Z" fill="white"/>
<path d="M258.669 205.643C259.011 206.002 259.451 206.251 259.935 206.358C260.419 206.465 260.924 206.426 261.385 206.245C261.846 206.064 262.243 205.749 262.524 205.341C262.806 204.934 262.96 204.451 262.966 203.956C262.959 203.367 262.735 202.801 262.338 202.367C261.046 203.379 259.82 204.473 258.669 205.643Z" fill="#333333"/>
<path d="M275.816 203.956C275.832 204.58 275.66 205.196 275.324 205.723C274.988 206.249 274.502 206.664 273.929 206.913C273.356 207.162 272.721 207.235 272.107 207.121C271.492 207.007 270.926 206.713 270.48 206.275C270.033 205.837 269.728 205.276 269.603 204.664C269.477 204.052 269.537 203.416 269.776 202.838C270.014 202.26 270.419 201.767 270.939 201.42C271.46 201.074 272.072 200.891 272.697 200.895C273.103 200.89 273.506 200.965 273.883 201.116C274.26 201.268 274.603 201.492 274.893 201.776C275.183 202.061 275.414 202.4 275.572 202.774C275.731 203.148 275.814 203.55 275.816 203.956Z" fill="white"/>
<path d="M270.892 205.643C271.233 206.002 271.674 206.251 272.158 206.358C272.642 206.465 273.146 206.426 273.608 206.245C274.069 206.064 274.465 205.749 274.747 205.341C275.029 204.934 275.182 204.451 275.188 203.956C275.189 203.365 274.965 202.797 274.56 202.367C273.269 203.379 272.043 204.473 270.892 205.643Z" fill="#333333"/>
<path d="M288.039 203.956C288.051 204.575 287.878 205.184 287.542 205.705C287.206 206.225 286.723 206.634 286.155 206.879C285.586 207.125 284.957 207.195 284.348 207.081C283.739 206.967 283.178 206.675 282.735 206.241C282.293 205.807 281.99 205.252 281.865 204.645C281.74 204.038 281.798 203.408 282.032 202.835C282.267 202.261 282.666 201.771 283.18 201.425C283.695 201.08 284.3 200.895 284.919 200.895C285.326 200.89 285.729 200.965 286.106 201.116C286.483 201.268 286.826 201.492 287.116 201.776C287.406 202.061 287.637 202.4 287.795 202.774C287.954 203.148 288.036 203.55 288.039 203.956Z" fill="white"/>
<path d="M283.115 205.643C283.459 205.999 283.901 206.246 284.385 206.351C284.869 206.457 285.373 206.417 285.835 206.237C286.296 206.056 286.694 205.743 286.978 205.338C287.262 204.932 287.42 204.451 287.431 203.956C287.424 203.367 287.201 202.801 286.803 202.367C285.501 203.374 284.269 204.469 283.115 205.643Z" fill="#333333"/>
<path d="M300.262 203.956C300.273 204.575 300.1 205.184 299.765 205.705C299.429 206.225 298.946 206.634 298.377 206.879C297.808 207.125 297.179 207.195 296.57 207.081C295.961 206.967 295.4 206.675 294.958 206.241C294.516 205.807 294.213 205.252 294.088 204.645C293.962 204.038 294.021 203.408 294.255 202.835C294.489 202.261 294.889 201.771 295.403 201.425C295.917 201.08 296.523 200.895 297.142 200.895C297.548 200.89 297.951 200.965 298.328 201.116C298.705 201.268 299.049 201.492 299.339 201.776C299.629 202.061 299.859 202.4 300.018 202.774C300.176 203.148 300.259 203.55 300.262 203.956Z" fill="white"/>
<path d="M295.338 205.643C295.573 205.884 295.853 206.076 296.163 206.207C296.473 206.339 296.806 206.407 297.143 206.408C297.469 206.413 297.793 206.354 298.096 206.233C298.399 206.113 298.676 205.933 298.909 205.705C299.143 205.477 299.329 205.205 299.456 204.905C299.584 204.605 299.651 204.282 299.654 203.956C299.647 203.367 299.424 202.801 299.026 202.367C297.728 203.379 296.496 204.473 295.338 205.643Z" fill="#333333"/>
<path d="M312.485 203.956C312.497 204.575 312.324 205.184 311.988 205.705C311.653 206.225 311.17 206.634 310.601 206.879C310.032 207.125 309.403 207.195 308.794 207.081C308.185 206.967 307.624 206.675 307.181 206.241C306.739 205.807 306.436 205.252 306.311 204.645C306.186 204.038 306.244 203.408 306.478 202.835C306.713 202.261 307.112 201.771 307.626 201.425C308.141 201.08 308.746 200.895 309.366 200.895C309.772 200.89 310.175 200.965 310.552 201.116C310.929 201.268 311.272 201.492 311.562 201.776C311.852 202.061 312.083 202.4 312.241 202.774C312.4 203.148 312.482 203.55 312.485 203.956Z" fill="white"/>
<path d="M307.58 205.643C307.922 206.002 308.363 206.251 308.847 206.358C309.33 206.465 309.835 206.426 310.296 206.245C310.757 206.064 311.154 205.749 311.436 205.341C311.717 204.934 311.871 204.451 311.877 203.956C311.87 203.367 311.647 202.801 311.249 202.367C309.953 203.374 308.727 204.469 307.58 205.643Z" fill="#333333"/>
<path d="M324.727 203.956C324.743 204.58 324.572 205.194 324.237 205.721C323.901 206.247 323.417 206.662 322.845 206.911C322.272 207.161 321.639 207.234 321.025 207.122C320.411 207.01 319.844 206.717 319.397 206.282C318.951 205.846 318.644 205.287 318.516 204.676C318.388 204.065 318.446 203.43 318.681 202.852C318.916 202.274 319.318 201.779 319.836 201.43C320.354 201.082 320.964 200.895 321.588 200.895C321.995 200.89 322.399 200.965 322.777 201.116C323.155 201.267 323.5 201.491 323.791 201.775C324.083 202.059 324.316 202.398 324.476 202.772C324.637 203.146 324.722 203.549 324.727 203.956Z" fill="white"/>
<path d="M319.803 205.643C320.145 206.002 320.586 206.251 321.07 206.358C321.553 206.465 322.058 206.426 322.519 206.245C322.981 206.064 323.377 205.749 323.659 205.341C323.941 204.934 324.094 204.451 324.1 203.956C324.094 203.367 323.87 202.801 323.472 202.367C322.18 203.379 320.955 204.473 319.803 205.643Z" fill="#333333"/>
<path d="M336.95 203.956C336.966 204.58 336.795 205.196 336.459 205.723C336.122 206.249 335.637 206.664 335.063 206.913C334.49 207.162 333.856 207.235 333.241 207.121C332.627 207.007 332.06 206.713 331.614 206.275C331.168 205.837 330.862 205.276 330.737 204.664C330.612 204.052 330.672 203.416 330.91 202.838C331.148 202.26 331.553 201.767 332.074 201.42C332.594 201.074 333.206 200.891 333.831 200.895C334.237 200.89 334.64 200.965 335.017 201.116C335.394 201.268 335.737 201.492 336.027 201.776C336.317 202.061 336.548 202.4 336.707 202.774C336.865 203.148 336.948 203.55 336.95 203.956Z" fill="white"/>
<path d="M332.026 205.643C332.367 206.002 332.808 206.251 333.292 206.358C333.776 206.465 334.28 206.426 334.742 206.245C335.203 206.064 335.6 205.749 335.881 205.341C336.163 204.934 336.316 204.451 336.322 203.956C336.323 203.365 336.099 202.797 335.694 202.367C334.403 203.379 333.177 204.473 332.026 205.643Z" fill="#333333"/>
<path d="M349.173 203.956C349.185 204.575 349.012 205.184 348.677 205.705C348.341 206.225 347.858 206.634 347.289 206.879C346.72 207.125 346.091 207.195 345.482 207.081C344.873 206.967 344.312 206.675 343.87 206.241C343.428 205.807 343.125 205.252 342.999 204.645C342.874 204.038 342.932 203.408 343.167 202.835C343.401 202.261 343.801 201.771 344.315 201.425C344.829 201.08 345.435 200.895 346.054 200.895C346.46 200.89 346.863 200.965 347.24 201.116C347.617 201.268 347.961 201.492 348.251 201.776C348.54 202.061 348.771 202.4 348.93 202.774C349.088 203.148 349.171 203.55 349.173 203.956Z" fill="white"/>
<path d="M344.249 205.643C344.593 205.999 345.035 206.246 345.519 206.351C346.003 206.457 346.508 206.417 346.969 206.237C347.43 206.056 347.828 205.743 348.112 205.338C348.396 204.932 348.554 204.451 348.565 203.956C348.559 203.367 348.335 202.801 347.938 202.367C346.635 203.374 345.403 204.469 344.249 205.643Z" fill="#333333"/>
<path d="M361.396 203.956C361.408 204.575 361.235 205.184 360.9 205.705C360.564 206.225 360.081 206.634 359.512 206.879C358.943 207.125 358.314 207.195 357.705 207.081C357.096 206.967 356.535 206.675 356.093 206.241C355.651 205.807 355.348 205.252 355.222 204.645C355.097 204.038 355.155 203.408 355.39 202.835C355.624 202.261 356.024 201.771 356.538 201.425C357.052 201.08 357.657 200.895 358.277 200.895C358.683 200.89 359.086 200.965 359.463 201.116C359.84 201.268 360.184 201.492 360.473 201.776C360.763 202.061 360.994 202.4 361.153 202.774C361.311 203.148 361.394 203.55 361.396 203.956Z" fill="white"/>
<path d="M356.413 205.643C356.648 205.884 356.929 206.076 357.239 206.207C357.549 206.339 357.882 206.407 358.218 206.408C358.545 206.413 358.869 206.354 359.172 206.233C359.475 206.113 359.751 205.933 359.985 205.705C360.218 205.477 360.404 205.205 360.532 204.905C360.66 204.605 360.727 204.282 360.73 203.956C360.723 203.367 360.499 202.801 360.102 202.367C358.804 203.379 357.572 204.473 356.413 205.643Z" fill="#333333"/>
<path d="M373.619 203.956C373.631 204.575 373.458 205.184 373.122 205.705C372.787 206.225 372.304 206.634 371.735 206.879C371.166 207.125 370.537 207.195 369.928 207.081C369.319 206.967 368.758 206.675 368.315 206.241C367.873 205.807 367.57 205.252 367.445 204.645C367.32 204.038 367.378 203.408 367.612 202.835C367.847 202.261 368.246 201.771 368.761 201.425C369.275 201.08 369.88 200.895 370.5 200.895C370.906 200.89 371.309 200.965 371.686 201.116C372.063 201.268 372.406 201.492 372.696 201.776C372.986 202.061 373.217 202.4 373.375 202.774C373.534 203.148 373.616 203.55 373.619 203.956Z" fill="white"/>
<path d="M368.714 205.643C369.056 206.002 369.497 206.251 369.981 206.358C370.464 206.465 370.969 206.426 371.43 206.245C371.892 206.064 372.288 205.749 372.57 205.341C372.851 204.934 373.005 204.451 373.011 203.956C373.004 203.367 372.781 202.801 372.383 202.367C371.087 203.374 369.861 204.469 368.714 205.643Z" fill="#333333"/>
<path d="M385.842 203.956C385.858 204.58 385.687 205.194 385.352 205.721C385.016 206.247 384.532 206.662 383.96 206.911C383.388 207.161 382.754 207.234 382.14 207.122C381.526 207.01 380.96 206.717 380.513 206.282C380.066 205.846 379.759 205.287 379.631 204.676C379.504 204.065 379.561 203.43 379.796 202.852C380.031 202.274 380.433 201.779 380.951 201.43C381.469 201.082 382.079 200.895 382.703 200.895C383.11 200.89 383.514 200.965 383.892 201.116C384.271 201.267 384.615 201.491 384.907 201.775C385.198 202.059 385.431 202.398 385.591 202.772C385.752 203.146 385.837 203.549 385.842 203.956Z" fill="white"/>
<path d="M380.938 205.643C381.279 206.002 381.72 206.251 382.204 206.358C382.688 206.465 383.192 206.426 383.654 206.245C384.115 206.064 384.512 205.749 384.793 205.341C385.075 204.934 385.228 204.451 385.234 203.956C385.228 203.367 385.004 202.801 384.607 202.367C383.315 203.379 382.089 204.473 380.938 205.643Z" fill="#333333"/>
<path d="M263.574 223.399C263.589 224.019 263.42 224.63 263.087 225.153C262.753 225.676 262.272 226.088 261.703 226.336C261.135 226.584 260.505 226.657 259.895 226.546C259.285 226.435 258.722 226.144 258.278 225.711C257.834 225.278 257.529 224.722 257.402 224.115C257.275 223.508 257.332 222.877 257.565 222.302C257.799 221.728 258.199 221.236 258.713 220.889C259.228 220.543 259.834 220.358 260.454 220.358C260.859 220.353 261.26 220.427 261.636 220.577C262.012 220.727 262.354 220.95 262.644 221.232C262.934 221.515 263.165 221.851 263.324 222.223C263.484 222.595 263.569 222.994 263.574 223.399Z" fill="white"/>
<path d="M258.669 225.106C258.899 225.348 259.176 225.541 259.483 225.673C259.79 225.804 260.12 225.872 260.454 225.871C260.782 225.873 261.106 225.812 261.409 225.689C261.713 225.566 261.989 225.384 262.222 225.155C262.455 224.925 262.641 224.652 262.768 224.351C262.896 224.049 262.963 223.726 262.966 223.399C262.954 222.817 262.731 222.259 262.338 221.829C261.046 222.842 259.82 223.936 258.669 225.106Z" fill="#333333"/>
<path d="M275.816 223.399C275.836 224.024 275.668 224.641 275.334 225.171C275.001 225.7 274.516 226.118 273.943 226.37C273.371 226.622 272.736 226.697 272.12 226.586C271.504 226.474 270.936 226.181 270.487 225.745C270.039 225.308 269.732 224.747 269.605 224.134C269.478 223.521 269.537 222.885 269.774 222.306C270.012 221.727 270.417 221.232 270.938 220.885C271.458 220.538 272.071 220.354 272.697 220.358C273.101 220.353 273.503 220.427 273.879 220.577C274.254 220.727 274.597 220.95 274.886 221.232C275.176 221.515 275.407 221.851 275.567 222.223C275.726 222.595 275.811 222.994 275.816 223.399Z" fill="white"/>
<path d="M270.892 225.106C271.234 225.466 271.677 225.715 272.163 225.822C272.648 225.928 273.154 225.887 273.617 225.704C274.079 225.52 274.475 225.203 274.755 224.792C275.035 224.381 275.186 223.896 275.188 223.399C275.186 222.815 274.962 222.253 274.56 221.829C273.269 222.842 272.043 223.936 270.892 225.106Z" fill="#333333"/>
<path d="M288.039 223.399C288.055 224.019 287.885 224.63 287.552 225.153C287.219 225.676 286.737 226.088 286.169 226.336C285.6 226.584 284.971 226.657 284.36 226.546C283.75 226.435 283.187 226.144 282.743 225.711C282.299 225.278 281.994 224.722 281.867 224.115C281.74 223.508 281.797 222.877 282.031 222.302C282.264 221.728 282.664 221.236 283.179 220.889C283.693 220.543 284.299 220.358 284.92 220.358C285.324 220.353 285.726 220.427 286.101 220.577C286.477 220.727 286.82 220.95 287.109 221.232C287.399 221.515 287.63 221.851 287.79 222.223C287.949 222.595 288.034 222.994 288.039 223.399Z" fill="white"/>
<path d="M283.115 225.106C283.46 225.463 283.904 225.71 284.39 225.815C284.875 225.92 285.381 225.878 285.844 225.695C286.306 225.513 286.703 225.197 286.986 224.788C287.268 224.379 287.423 223.896 287.431 223.399C287.42 222.817 287.196 222.259 286.803 221.829C285.501 222.837 284.269 223.931 283.115 225.106Z" fill="#333333"/>
<path d="M300.262 223.399C300.277 224.019 300.108 224.63 299.775 225.153C299.441 225.676 298.96 226.088 298.391 226.336C297.823 226.584 297.193 226.657 296.583 226.546C295.973 226.435 295.41 226.144 294.966 225.711C294.521 225.278 294.216 224.722 294.09 224.115C293.963 223.508 294.02 222.877 294.253 222.302C294.487 221.728 294.887 221.236 295.401 220.889C295.916 220.543 296.522 220.358 297.142 220.358C297.547 220.353 297.948 220.427 298.324 220.577C298.7 220.727 299.042 220.95 299.332 221.232C299.622 221.515 299.853 221.851 300.012 222.223C300.172 222.595 300.257 222.994 300.262 223.399Z" fill="white"/>
<path d="M295.338 225.106C295.573 225.347 295.853 225.539 296.163 225.67C296.473 225.801 296.806 225.87 297.143 225.871C297.47 225.873 297.794 225.812 298.098 225.689C298.401 225.566 298.677 225.384 298.91 225.155C299.144 224.925 299.329 224.652 299.457 224.351C299.584 224.049 299.651 223.726 299.654 223.399C299.643 222.817 299.419 222.259 299.026 221.829C297.728 222.842 296.496 223.936 295.338 225.106Z" fill="#333333"/>
<path d="M312.485 223.399C312.501 224.019 312.331 224.63 311.998 225.153C311.665 225.676 311.183 226.088 310.615 226.336C310.046 226.584 309.417 226.657 308.807 226.546C308.196 226.435 307.633 226.144 307.189 225.711C306.745 225.278 306.44 224.722 306.313 224.115C306.186 223.508 306.243 222.877 306.477 222.302C306.71 221.728 307.11 221.236 307.625 220.889C308.139 220.543 308.745 220.358 309.366 220.358C309.77 220.353 310.172 220.427 310.547 220.577C310.923 220.727 311.266 220.95 311.555 221.232C311.845 221.515 312.076 221.851 312.236 222.223C312.395 222.595 312.48 222.994 312.485 223.399Z" fill="white"/>
<path d="M307.58 225.106C307.81 225.348 308.087 225.541 308.394 225.673C308.701 225.804 309.032 225.872 309.366 225.871C309.693 225.873 310.017 225.812 310.321 225.689C310.624 225.566 310.9 225.384 311.133 225.155C311.367 224.925 311.552 224.652 311.68 224.351C311.807 224.049 311.874 223.726 311.877 223.399C311.866 222.817 311.642 222.259 311.249 221.829C309.953 222.837 308.727 223.931 307.58 225.106Z" fill="#333333"/>
<path d="M324.728 223.399C324.747 224.023 324.58 224.64 324.247 225.169C323.914 225.698 323.431 226.115 322.859 226.368C322.288 226.621 321.654 226.697 321.038 226.587C320.423 226.477 319.855 226.186 319.406 225.752C318.957 225.317 318.648 224.758 318.519 224.146C318.39 223.535 318.446 222.899 318.68 222.319C318.915 221.74 319.317 221.244 319.835 220.894C320.353 220.545 320.964 220.358 321.589 220.358C322.407 220.347 323.197 220.661 323.785 221.231C324.373 221.801 324.712 222.58 324.728 223.399Z" fill="white"/>
<path d="M319.803 225.106C320.033 225.348 320.31 225.541 320.617 225.673C320.924 225.804 321.255 225.872 321.589 225.871C321.916 225.873 322.241 225.812 322.544 225.689C322.847 225.566 323.123 225.384 323.357 225.155C323.59 224.925 323.775 224.652 323.903 224.351C324.031 224.049 324.098 223.726 324.1 223.399C324.089 222.817 323.866 222.259 323.472 221.829C322.18 222.842 320.955 223.936 319.803 225.106Z" fill="#333333"/>
<path d="M336.951 223.399C336.97 224.024 336.803 224.641 336.469 225.171C336.135 225.7 335.651 226.118 335.078 226.37C334.505 226.622 333.87 226.697 333.254 226.586C332.639 226.474 332.07 226.181 331.622 225.745C331.174 225.308 330.867 224.747 330.739 224.134C330.612 223.521 330.671 222.885 330.909 222.306C331.146 221.727 331.551 221.232 332.072 220.885C332.593 220.538 333.205 220.354 333.831 220.358C334.236 220.353 334.637 220.427 335.013 220.577C335.389 220.727 335.731 220.95 336.021 221.232C336.311 221.515 336.542 221.851 336.701 222.223C336.861 222.595 336.946 222.994 336.951 223.399Z" fill="white"/>
<path d="M332.026 225.106C332.368 225.466 332.811 225.715 333.297 225.822C333.782 225.928 334.289 225.887 334.751 225.704C335.213 225.52 335.609 225.203 335.889 224.792C336.169 224.381 336.32 223.896 336.322 223.399C336.32 222.815 336.096 222.253 335.694 221.829C334.403 222.842 333.177 223.936 332.026 225.106Z" fill="#333333"/>
<path d="M349.173 223.399C349.189 224.019 349.019 224.63 348.686 225.153C348.353 225.676 347.871 226.088 347.303 226.336C346.734 226.584 346.105 226.657 345.495 226.546C344.884 226.435 344.321 226.144 343.877 225.711C343.433 225.278 343.128 224.722 343.001 224.115C342.874 223.508 342.931 222.877 343.165 222.302C343.398 221.728 343.798 221.236 344.313 220.889C344.827 220.543 345.433 220.358 346.054 220.358C346.458 220.353 346.86 220.427 347.235 220.577C347.611 220.727 347.954 220.95 348.243 221.232C348.533 221.515 348.764 221.851 348.924 222.223C349.083 222.595 349.168 222.994 349.173 223.399Z" fill="white"/>
<path d="M344.249 225.106C344.594 225.463 345.038 225.71 345.524 225.815C346.01 225.92 346.516 225.878 346.978 225.695C347.44 225.513 347.838 225.197 348.12 224.788C348.403 224.379 348.558 223.896 348.565 223.399C348.554 222.817 348.331 222.259 347.938 221.829C346.635 222.837 345.403 223.931 344.249 225.106Z" fill="#333333"/>
<path d="M361.396 223.399C361.412 224.019 361.242 224.63 360.909 225.153C360.576 225.676 360.095 226.088 359.526 226.336C358.958 226.584 358.328 226.657 357.718 226.546C357.108 226.435 356.545 226.144 356.1 225.711C355.656 225.278 355.351 224.722 355.224 224.115C355.098 223.508 355.155 222.877 355.388 222.302C355.622 221.728 356.021 221.236 356.536 220.889C357.051 220.543 357.657 220.358 358.277 220.358C358.682 220.353 359.083 220.427 359.459 220.577C359.834 220.727 360.177 220.95 360.467 221.232C360.756 221.515 360.988 221.851 361.147 222.223C361.307 222.595 361.391 222.994 361.396 223.399Z" fill="white"/>
<path d="M356.413 225.106C356.648 225.347 356.929 225.539 357.239 225.67C357.549 225.801 357.882 225.87 358.218 225.871C358.546 225.873 358.87 225.812 359.173 225.689C359.477 225.566 359.753 225.384 359.986 225.155C360.219 224.925 360.405 224.652 360.532 224.351C360.66 224.049 360.727 223.726 360.73 223.399C360.718 222.817 360.495 222.259 360.102 221.829C358.804 222.842 357.572 223.936 356.413 225.106Z" fill="#333333"/>
<path d="M373.619 223.399C373.635 224.019 373.465 224.63 373.132 225.153C372.799 225.676 372.317 226.088 371.749 226.336C371.18 226.584 370.551 226.657 369.941 226.546C369.33 226.435 368.767 226.144 368.323 225.711C367.879 225.278 367.574 224.722 367.447 224.115C367.32 223.508 367.377 222.877 367.611 222.302C367.844 221.728 368.244 221.236 368.759 220.889C369.273 220.543 369.879 220.358 370.5 220.358C370.904 220.353 371.306 220.427 371.681 220.577C372.057 220.727 372.4 220.95 372.689 221.232C372.979 221.515 373.21 221.851 373.37 222.223C373.529 222.595 373.614 222.994 373.619 223.399Z" fill="white"/>
<path d="M368.714 225.106C368.944 225.348 369.221 225.541 369.528 225.673C369.835 225.804 370.166 225.872 370.5 225.871C370.827 225.873 371.151 225.812 371.455 225.689C371.758 225.566 372.034 225.384 372.267 225.155C372.501 224.925 372.686 224.652 372.814 224.351C372.941 224.049 373.008 223.726 373.011 223.399C373 222.817 372.776 222.259 372.383 221.829C371.087 222.837 369.861 223.931 368.714 225.106Z" fill="#333333"/>
<path d="M385.843 223.399C385.862 224.023 385.695 224.64 385.362 225.169C385.029 225.698 384.546 226.115 383.975 226.368C383.403 226.621 382.769 226.697 382.154 226.587C381.538 226.477 380.97 226.186 380.521 225.752C380.072 225.317 379.763 224.758 379.634 224.146C379.505 223.535 379.561 222.899 379.795 222.319C380.03 221.74 380.432 221.244 380.95 220.894C381.468 220.545 382.079 220.358 382.704 220.358C383.523 220.347 384.312 220.661 384.9 221.231C385.489 221.801 385.827 222.58 385.843 223.399Z" fill="white"/>
<path d="M380.938 225.106C381.168 225.348 381.444 225.541 381.751 225.673C382.058 225.804 382.389 225.872 382.723 225.871C383.05 225.873 383.375 225.812 383.678 225.689C383.981 225.566 384.258 225.384 384.491 225.155C384.724 224.925 384.91 224.652 385.037 224.351C385.165 224.049 385.232 223.726 385.234 223.399C385.223 222.817 385 222.259 384.607 221.829C383.315 222.842 382.089 223.936 380.938 225.106Z" fill="#333333"/>
<path d="M241.462 188.868H146.877C144.822 188.869 142.849 188.064 141.382 186.626C139.915 185.188 139.07 183.232 139.029 181.178V137.544C139.029 107.781 163.769 83.5508 194.179 83.5508C224.59 83.5508 249.349 107.781 249.349 137.544V181.178C249.308 183.238 248.458 185.2 246.982 186.639C245.506 188.078 243.524 188.879 241.462 188.868ZM154.724 173.565H233.595V137.544C233.595 127.085 229.44 117.054 222.045 109.659C214.649 102.263 204.619 98.1085 194.16 98.1085C183.701 98.1085 173.67 102.263 166.275 109.659C158.879 117.054 154.724 127.085 154.724 137.544V173.565Z" fill="white" stroke="#333333" stroke-linecap="round" stroke-linejoin="round"/>
<path d="M253.587 167.836H133.163V267.464H253.587V167.836Z" fill="#EAB700" stroke="#333333" stroke-linecap="round" stroke-linejoin="round"/>
<path d="M205.912 209.214C205.781 205.823 204.342 202.615 201.896 200.262C199.451 197.91 196.19 196.596 192.796 196.596C189.403 196.596 186.142 197.91 183.696 200.262C181.251 202.615 179.812 205.823 179.681 209.214C179.691 211.546 180.338 213.831 181.552 215.822C182.765 217.814 184.499 219.436 186.567 220.515L184.37 243.136H201.223L199.026 220.515C201.093 219.436 202.827 217.814 204.041 215.822C205.254 213.831 205.901 211.546 205.912 209.214Z" fill="#333333" stroke="#333333" stroke-linecap="round" stroke-linejoin="round"/>
</g>
</svg>
