<svg width="248" height="107" viewBox="0 0 248 107" fill="none" xmlns="http://www.w3.org/2000/svg">
<path d="M219.524 98.6338H27.9948C22.8967 98.628 18.7654 94.458 18.7596 89.3122V15.9554C18.7654 10.8096 22.8968 6.63964 27.9948 6.63379H219.524C224.623 6.63964 228.754 10.8096 228.76 15.9554V89.3122C228.754 94.458 224.623 98.628 219.524 98.6338Z" fill="#F9F9F9"/>
<ellipse cx="17.3632" cy="105.041" rx="2.41434" ry="1.70737" fill="white"/>
<ellipse cx="33.1569" cy="97.4998" rx="2.41434" ry="1.70737" fill="#3F3D56"/>
<ellipse cx="12.0382" cy="92.9619" rx="1.41406" ry="1" fill="#FF6584"/>
<ellipse cx="2.17959" cy="87.8247" rx="1.41994" ry="2" fill="#DCDCDC"/>
<ellipse cx="12.1832" cy="77.6033" rx="1.08906" ry="1.53395" fill="#3F3D56"/>
<ellipse cx="49.0748" cy="83.8195" rx="3.52132" ry="2.5" transform="rotate(-89.5667 49.0748 83.8195)" fill="#DCDCDC"/>
<ellipse cx="31.0654" cy="75.2768" rx="2.81706" ry="2" transform="rotate(-89.5667 31.0654 75.2768)" fill="#FF6584"/>
<ellipse cx="26.9325" cy="90.9267" rx="1.40853" ry="1" transform="rotate(-89.5667 26.9325 90.9267)" fill="#3F3D56"/>
<ellipse cx="234.798" cy="4.29825" rx="2.88655" ry="2.10489" fill="white"/>
<ellipse cx="213.629" cy="11.1747" rx="2.88655" ry="2.10489" fill="#3F3D56"/>
<ellipse cx="233.396" cy="22.2021" rx="2.88655" ry="2.10489" fill="#FF6584"/>
<ellipse cx="244.425" cy="26.776" rx="1.29774" ry="1.84727" fill="#E6E6E6"/>
<ellipse cx="246.004" cy="38.7867" rx="1.29775" ry="1.84727" fill="#3F3D56"/>
<ellipse cx="219.404" cy="21.8966" rx="1.29774" ry="1.84727" fill="#E6E6E6"/>
<ellipse cx="242.051" cy="11.2726" rx="1.29774" ry="1.84727" fill="#FF6584"/>
<ellipse cx="224.166" cy="2.48105" rx="1.29774" ry="1.84727" fill="#3F3D56"/>
<path d="M106 50.0013C106.01 56.6568 103.551 63.0795 99.0995 68.0274V68.0311C98.4702 68.7308 97.8055 69.398 97.108 70.0299C96.3944 70.6762 95.6461 71.2834 94.8667 71.8486C94.3229 72.2455 93.7644 72.6202 93.1912 72.973C92.5114 73.3955 91.812 73.7862 91.0931 74.1451C90.5603 74.4133 90.0165 74.6632 89.4617 74.8946C86.1499 76.2864 82.5932 77.0022 79.0008 77C76.9719 77.0022 74.9492 76.7754 72.9712 76.3239C72.0564 76.1159 71.1536 75.8583 70.2668 75.5523C69.9251 75.4384 69.5834 75.3135 69.2454 75.1812C67.1957 74.3889 65.2519 73.3461 63.4583 72.0765C52.9938 64.7089 49.1398 51.0069 54.2291 39.2646C59.3184 27.5223 71.9526 20.9664 84.4839 23.5652C97.0152 26.1641 106 37.2036 106 50.0013V50.0013Z" fill="#E6E6E6"/>
<path d="M163.486 33.6338H123.032C122.329 33.6326 121.76 32.9614 121.76 32.1338C121.76 31.3062 122.329 30.635 123.032 30.6338H163.486C164.189 30.6338 164.76 31.3054 164.76 32.1338C164.76 32.9622 164.189 33.6338 163.486 33.6338Z" fill="#70B6C1"/>
<path d="M163.487 53.6338H123.032C122.329 53.6326 121.76 52.9614 121.76 52.1338C121.76 51.3062 122.329 50.635 123.032 50.6338H163.487C164.19 50.635 164.76 51.3062 164.76 52.1338C164.76 52.9614 164.19 53.6326 163.487 53.6338Z" fill="#E6E6E6"/>
<path d="M163.486 76.6338H123.032C122.329 76.6326 121.76 75.9614 121.76 75.1338C121.76 74.3062 122.329 73.635 123.032 73.6338H163.486C164.189 73.6338 164.76 74.3054 164.76 75.1338C164.76 75.9622 164.189 76.6338 163.486 76.6338Z" fill="#E6E6E6"/>
<path d="M75.3328 100.905C70.8003 94.9248 68.1806 88.2375 68.0948 80.6135C67.7908 79.758 68.2422 78.8198 69.1039 78.5163L84.553 73.094C85.4154 72.7924 86.3612 73.2402 86.6672 74.095L93.9052 94.3865C94.2092 95.242 93.7578 96.1802 92.8961 96.4837L77.447 101.906C76.5846 102.208 75.6388 101.76 75.3328 100.905Z" fill="#E6E6E6"/>
<path d="M74.7793 94.3053C72.0319 91.4955 70.8558 86.4839 70.0895 80.8983C69.8025 80.0749 70.2286 79.1719 71.042 78.8797L84.4234 74.0905C85.2375 73.8002 86.1302 74.2312 86.4191 75.0539L92.9105 93.6114C93.1975 94.4348 92.7714 95.3378 91.958 95.63L83.6684 98.5968C80.0424 99.8899 76.0659 97.9701 74.7793 94.3053Z" fill="white"/>
<path d="M86.5497 85.2771L75.9061 88.9617C75.6779 89.0407 75.4236 88.9956 75.239 88.8435C75.0544 88.6914 74.9675 88.4553 75.0111 88.2242C75.0546 87.993 75.222 87.802 75.4501 87.723L86.0938 84.0385C86.4465 83.9164 86.8345 84.0947 86.9604 84.4367C87.0862 84.7788 86.9024 85.155 86.5497 85.2771L86.5497 85.2771Z" fill="#70B6C1"/>
<path d="M77.5125 84.2013L74.9805 84.9638C74.7337 85.0383 74.4585 84.9961 74.2586 84.8529C74.0588 84.7098 73.9648 84.4876 74.012 84.27C74.0592 84.0525 74.2405 83.8728 74.4875 83.7987L77.0195 83.0362C77.2663 82.9617 77.5415 83.0039 77.7414 83.1471C77.9412 83.2902 78.0352 83.5124 77.988 83.73C77.9408 83.9475 77.7595 84.1272 77.5125 84.2013Z" fill="#70B6C1"/>
<path d="M88.5503 90.277L77.9057 93.9618C77.553 94.0834 77.1655 93.9051 77.0397 93.5633C76.9138 93.2214 77.0974 92.8454 77.4497 92.723L88.0943 89.0382C88.447 88.9166 88.8345 89.0949 88.9603 89.4367C89.0862 89.7786 88.9026 90.1546 88.5503 90.277Z" fill="#70B6C1"/>
<path d="M87.5492 88.2771L76.9062 91.9615C76.5535 92.0836 76.1655 91.9053 76.0396 91.5633C75.9138 91.2213 76.0976 90.845 76.4503 90.7229L87.0933 87.0385C87.3216 86.9592 87.576 87.0042 87.7608 87.1563C87.9456 87.3085 88.0326 87.5448 87.9889 87.776C87.9452 88.0073 87.7776 88.1983 87.5492 88.2771Z" fill="#70B6C1"/>
<path d="M78.0491 36.0136C78.3871 38.7466 80.2767 41 83.0246 41C85.7724 41 88 38.7675 88 36.0136C88 33.2597 85.7606 31.2818 83.0246 31.0272C80.1214 30.757 77.6152 32.5048 78.0491 36.0136Z" fill="#2F2E41"/>
<path d="M87 69.66C84.0135 70.1846 80.955 70.1014 78 69.4153C79.4026 68.624 83.6569 69.1102 87 69.66Z" fill="#2F2E41"/>
<path d="M67.9156 77.9998L70.2001 72L72 73.0867L70.913 79.19C71.2153 80.2639 70.7152 81.4113 69.759 81.8372C68.8029 82.2631 67.7056 81.8274 67.2273 80.8319C66.7491 79.8364 67.0474 78.6089 67.9156 77.9998Z" fill="#FFB6B6"/>
<path d="M91.878 62.2206V62.2238C91.7935 64.2506 91.6778 66.1784 91.5808 67.6618C88.7612 68.8727 85.7332 69.4956 82.6747 69.4936C80.9473 69.4955 79.2253 69.2982 77.5412 68.9054C76.7624 68.7244 75.9938 68.5003 75.2388 68.234C75.3439 68.1647 75.4575 68.1099 75.5767 68.071C76.7028 67.6809 75.5892 67.3261 75.5986 66.9552C75.633 65.5997 75.999 63.9725 76.4713 62.4124L74.3691 67.9111L73.2742 70.7692C73.2742 70.7692 73.3118 73.2372 72.6173 72.4827C71.9197 71.7283 71.9698 74.1707 71.9698 74.1707C71.753 74.3286 71.5663 74.5258 71.4192 74.7525C71.3573 74.8546 71.334 74.9762 71.3535 75.0946V75.0978C71.3849 75.1908 71.4468 75.2698 71.5287 75.3216C72.0011 75.6477 71.3222 76.5109 71.0219 76.8529C70.9406 76.9456 70.8874 77 70.8874 77L68 76.789V76.7314C68.0125 76.383 68.0907 74.5479 68.5381 74.11C69.0292 73.6272 68.7883 72.8632 68.7883 72.8632C68.7883 72.8632 70.0709 71.7027 69.2106 70.7596C68.8665 70.3792 69.0198 68.1253 69.4421 65.2097C70.365 58.7775 72.5767 49.1228 73.5339 49.2602C73.9361 47.2636 75.3993 45.6657 77.3222 45.1234L80.4411 44.2474L80.9979 42H85.39L86.1533 43.477L89.3535 44.954L89.3942 44.9732L89.4943 45.0179L89.5318 45.1394C89.5318 45.1394 89.5287 45.1426 89.5318 45.1426L91.3118 50.8555C92.1126 51.7954 92.0814 57.2877 91.878 62.2206Z" fill="#70B6C1"/>
<path d="M99.9361 73.5867L97 67.8548L98.9405 67L102.714 71.773C103.693 72.1907 104.214 73.341 103.917 74.4268C103.62 75.5127 102.603 76.1766 101.57 75.9587C100.538 75.7407 99.8293 74.7126 99.9361 73.5867Z" fill="#FFB6B6"/>
<path d="M90 45C90.5369 45.9481 95.4472 48.3864 94.5962 50.8343C94.5962 50.8343 99.2092 65.0173 99.8091 64.9247C100.409 64.8322 100.994 66.2972 100.994 66.2972C100.994 66.2972 100.867 67.2533 101.241 66.856C101.615 66.4586 101.526 67.5002 101.526 67.5002C101.526 67.5002 101.347 68.4195 101.822 68.1696C102.297 67.9196 101.672 69.6789 101.672 69.6789L98.8172 71L98.2747 70.2065C98.2747 70.2065 97.1154 69.9895 97.6609 69.8176C98.2064 69.6458 97.148 69.0673 97.148 69.0673C97.148 69.0673 96.0406 68.3278 96.195 67.1029C96.3493 65.8781 93.3215 63.4703 93.3215 63.4703C91.24 59.4317 90.1013 55.2852 90.1053 51.0081L90 45Z" fill="#70B6C1"/>
<circle cx="83.5" cy="36.5" r="4.5" fill="#FFB6B6"/>
<path d="M78.196 37.6768C78.3419 38.6467 79.1952 40 78.9954 40C78.7955 40 77.3746 36.0015 78.7955 35.7407C79.8262 35.5516 80.0566 35.7175 81.0198 35.3129L80.8839 35.4368C81.5215 35.8859 82.4088 35.6091 83.1362 35.3167C83.8657 35.0263 84.751 34.7495 85.3905 35.1967C85.7922 35.4774 85.9621 35.9653 86.2119 36.3796C86.4617 36.7959 86.9233 37.1889 87.399 37.0611C87.7792 36.9188 88.0214 36.5552 87.9985 36.1608C87.9965 35.7775 87.4813 35.4128 87.6548 35.0689C88.169 34.0497 87.7066 33.355 86.5856 32.8754C86.1779 32.8154 85.7702 32.7541 85.3625 32.6915C85.5762 32.4048 85.8351 32.1526 86.1299 31.9442C86.0054 31.6348 85.79 31.3676 85.5104 31.1756C85.165 31.02 84.78 30.9662 84.4033 31.0207C83.5599 31.0633 82.7172 31.1059 81.8752 31.1485C81.2481 31.1376 80.6257 31.255 80.0486 31.4931C79.3531 31.8396 78.8975 32.5153 78.5657 33.2026C77.8223 34.7475 77.9402 35.9905 78.196 37.6768Z" fill="#2F2E41"/>
<path d="M188.484 44.6338H122.036C121.883 44.6338 121.76 43.9622 121.76 43.1338C121.76 42.3054 121.883 41.6338 122.036 41.6338H188.484C188.636 41.6338 188.76 42.3054 188.76 43.1338C188.76 43.9622 188.636 44.6338 188.484 44.6338Z" fill="#E6E6E6"/>
<path d="M188.484 68.6338H122.036C121.883 68.6338 121.76 67.9622 121.76 67.1338C121.76 66.3054 121.883 65.6338 122.036 65.6338H188.484C188.636 65.6338 188.76 66.3054 188.76 67.1338C188.76 67.9622 188.636 68.6338 188.484 68.6338Z" fill="#E6E6E6"/>
<path d="M188.484 85.6338H122.036C121.883 85.6338 121.76 84.9622 121.76 84.1338C121.76 83.3054 121.883 82.6338 122.036 82.6338H188.484C188.636 82.6338 188.76 83.3054 188.76 84.1338C188.76 84.9622 188.636 85.6338 188.484 85.6338Z" fill="#E6E6E6"/>
<path fill-rule="evenodd" clip-rule="evenodd" d="M205.932 84.5563C205.322 84.0297 204.673 83.1142 204.001 81.8354C203.133 80.167 207.256 74.5813 208 72.8531C207.646 73.2167 203.06 77.1513 202.637 77.4306L202.424 77.5741L202.411 77.3156C202.403 77.1475 202.399 76.9799 202.399 76.8176C202.399 75.8609 203.116 74.8902 202.785 74.0059C201.392 70.279 196.971 66.5752 203.378 60.8073C203.971 60.2737 203.179 59.2069 203.179 58.3997C203.179 50.4882 214.259 36.801 217.4 44.0517C221.273 52.9937 227.111 51.4708 230.067 53.3178L230.11 53.4484L229.984 53.5C229.337 53.7744 222.105 56.9475 221.409 57.0337C222.151 57.1865 230.293 54.8268 231.051 54.8008L231.168 54.7966L231.197 54.9118C231.479 56.0526 231.621 57.224 231.621 58.3997L231.62 58.5268C231.615 60.3328 232.371 62.0559 233.701 63.2654C235.8 65.1966 236.997 67.9297 237 70.7961C237 72.4734 235.87 74.675 234.923 76.2266C234.436 77.0273 233.613 77.5593 232.689 77.6705C231.814 77.7818 225.645 76.8333 225 76.2266C225.449 77.1367 231.324 78.6338 232.024 79.3647L232.153 79.4991L231.992 79.5935C230.45 80.5014 228.696 80.9794 226.91 80.9787L226.805 80.9784C224.16 80.9509 221.615 81.9991 219.744 83.8867C217.839 85.8669 215.224 86.9891 212.49 87C210.085 87 207.759 86.1334 205.932 84.5563Z" fill="#ABDFE7"/>
<path d="M209.541 103C209.453 103 209.379 102.934 209.367 102.845C208.907 98.6346 208.879 94.3864 209.285 90.1702C209.892 83.519 211.842 73.939 217.684 66.0711C217.722 66.0198 217.784 65.9933 217.846 66.0015C217.909 66.0097 217.962 66.0514 217.986 66.1109C218.011 66.1704 218.002 66.2387 217.964 66.29C212.173 74.09 210.238 83.5997 209.635 90.2039C209.232 94.3919 209.259 98.6118 209.715 102.794C209.722 102.846 209.707 102.898 209.674 102.938C209.64 102.977 209.592 103 209.541 103Z" fill="#3F3D56"/>
<path d="M214.18 77C214.102 77.0001 214.033 76.9441 214.009 76.8613C213.985 76.7785 214.011 76.6878 214.074 76.6366C215.775 75.3501 217.612 74.305 219.544 73.5251C222.562 72.2905 227.15 71.1713 231.875 72.8515C231.969 72.8851 232.022 72.9981 231.991 73.1038C231.961 73.2095 231.86 73.2679 231.766 73.2343C227.138 71.5886 222.633 72.6894 219.667 73.9024C217.767 74.6689 215.959 75.6965 214.285 76.9616C214.255 76.9866 214.218 77 214.18 77Z" fill="#3F3D56"/>
<path d="M205.001 56.196C204.994 56.117 205.044 56.0434 205.124 56.0135C205.204 55.9836 205.295 56.0044 205.351 56.0649C206.757 57.7046 207.936 59.4984 208.86 61.4052C210.32 64.3831 211.792 68.9611 210.509 73.8595C210.492 73.9232 210.44 73.9738 210.372 73.9924C210.303 74.011 210.23 73.9947 210.178 73.9497C210.126 73.9046 210.105 73.8376 210.122 73.7741C211.379 68.976 209.932 64.4811 208.498 61.5552C207.589 59.679 206.43 57.9139 205.047 56.3005C205.02 56.271 205.004 56.2344 205.001 56.196Z" fill="#3F3D56"/>
<path fill-rule="evenodd" clip-rule="evenodd" d="M19.1949 60.9783L19.0903 60.9786C17.3044 60.9793 15.5504 60.5013 14.0076 59.5935L13.847 59.4991L13.9763 59.3646C14.6764 58.6338 18.7463 56.0335 19.1949 55.1234C18.55 55.7302 14.1859 57.7817 13.3111 57.6704C12.3868 57.5592 11.5638 57.0273 11.0773 56.2265C10.1296 54.6749 9 52.4733 9 50.7961C9.00298 47.9297 10.2004 45.1966 12.2994 43.2654C13.6286 42.0559 14.3851 40.3328 14.3798 38.5267L14.3793 38.3997C14.3791 37.224 14.5215 36.0526 14.8032 34.9118L14.8318 34.7966L14.9493 34.8008C15.7067 34.8268 22.2574 38.6796 23 38.5267C22.3035 38.4405 17.3225 32.8256 16.6755 32.5512L16.5492 32.4996L16.5921 32.369C19.5481 30.522 24.7273 32.9937 28.6003 24.0517C31.7407 16.801 42.8212 30.4882 42.8212 38.3996C42.8212 39.2069 42.0295 40.2737 42.6221 40.8073C49.0289 46.5752 44.6083 50.279 43.2146 54.0059C42.8839 54.8901 43.6009 55.8609 43.6009 56.8175C43.6009 56.9798 43.5968 57.1474 43.5887 57.3155L43.5764 57.574L43.3628 57.4306C42.9402 57.1512 39.6753 52.3636 39.3212 52C40.0654 53.7282 42.8666 60.167 41.9987 61.8354C41.3273 63.1142 40.6778 64.0297 40.0681 64.5563C36.014 68.0573 29.9586 67.7637 26.2558 63.8866C24.3851 61.999 21.8402 60.9508 19.1949 60.9783Z" fill="#ABDFE7"/>
<path d="M37.4591 83C37.5466 82.9999 37.6207 82.9338 37.6331 82.8449C38.0931 78.6346 38.1206 74.3864 37.7151 70.1702C37.1079 63.519 35.1577 53.939 29.3159 46.0711C29.2778 46.0198 29.2159 45.9933 29.1536 46.0015C29.0912 46.0097 29.0379 46.0514 29.0136 46.1109C28.9894 46.1704 28.9979 46.2387 29.036 46.29C34.8274 54.09 36.7618 63.5997 37.3648 70.2039C37.7681 74.3919 37.7413 78.6118 37.2847 82.794C37.2776 82.8458 37.2927 82.8983 37.3261 82.9378C37.3596 82.9773 37.4081 83 37.4591 83Z" fill="#3F3D56"/>
<path d="M31.8201 57C31.898 57.0001 31.9671 56.9441 31.9912 56.8613C32.0153 56.7785 31.9889 56.6878 31.9259 56.6366C30.2251 55.3501 28.3878 54.305 26.4562 53.5251C23.4384 52.2905 18.8495 51.1713 14.1253 52.8515C14.0307 52.8851 13.9784 52.9981 14.0085 53.1038C14.0386 53.2095 14.1397 53.2679 14.2343 53.2343C18.8617 51.5886 23.3675 52.6894 26.3326 53.9025C28.2331 54.6689 30.041 55.6965 31.7145 56.9616C31.7452 56.9866 31.7821 57 31.8201 57Z" fill="#3F3D56"/>
<path d="M40.9995 36.196C41.0057 36.117 40.9559 36.0434 40.8761 36.0135C40.7962 35.9836 40.7045 36.0044 40.649 36.0649C39.2426 37.7046 38.0638 39.4984 37.1396 41.4052C35.6795 44.3831 34.2082 48.9611 35.4914 53.8595C35.5078 53.9232 35.5601 53.9738 35.6283 53.9924C35.6966 54.011 35.7705 53.9947 35.8221 53.9497C35.8736 53.9046 35.895 53.8376 35.8782 53.7741C34.6215 48.976 36.0678 44.4811 37.5024 41.5552C38.411 39.679 39.5701 37.9139 40.9531 36.3004C40.9802 36.271 40.9965 36.2344 40.9995 36.196Z" fill="#3F3D56"/>
</svg>
