<svg width="244" height="43" viewBox="0 0 244 43" fill="none" xmlns="http://www.w3.org/2000/svg">
<path d="M61.0859 0.486327H67.3437L73.9531 16.6113H74.2344L80.8437 0.486327H87.1016V24.4863H82.1797V8.86523H81.9805L75.7695 24.3691H72.418L66.207 8.80664H66.0078V24.4863H61.0859V0.486327ZM95.4189 24.4863H89.9814L98.2666 0.486327H104.806L113.079 24.4863H107.642L101.63 5.9707H101.442L95.4189 24.4863ZM95.0791 15.0527H107.923V19.0137H95.0791V15.0527ZM136.042 0.486327V24.4863H131.659L121.218 9.38086H121.042V24.4863H115.968V0.486327H120.421L130.78 15.5801H130.991V0.486327H136.042ZM145.309 0.486327V24.4863H140.234V0.486327H145.309ZM149.483 24.4863V0.486327H154.558V20.3027H164.847V24.4863H149.483ZM168.207 24.4863V0.486327H173.281V20.3027H183.57V24.4863H168.207ZM191.68 24.4863H186.242L194.527 0.486327H201.066L209.34 24.4863H203.902L197.891 5.9707H197.703L191.68 24.4863ZM191.34 15.0527H204.184V19.0137H191.34V15.0527Z" fill="#011646"/>
<path d="M59.9748 38.2324V29.3597H65.4769V30.5121H61.3135V33.2155H65.0827V34.3636H61.3135V38.2324H59.9748ZM84.6055 29.3597V38.2324H83.2668V29.3597H84.6055ZM109.86 29.3597V38.2324H108.63L104.12 31.7252H104.037V38.2324H102.699V29.3597H103.938L108.452 35.8756H108.534V29.3597H109.86ZM128.706 38.2324H127.285L130.478 29.3597H132.025L135.218 38.2324H133.796L131.288 30.9713H131.219L128.706 38.2324ZM128.944 34.7578H133.554V35.8843H128.944V34.7578ZM159.804 29.3597V38.2324H158.573L154.063 31.7252H153.981V38.2324H152.642V29.3597H153.881L158.396 35.8756H158.478V29.3597H159.804ZM185.27 32.2451H183.918C183.866 31.9562 183.769 31.7021 183.628 31.4826C183.486 31.2631 183.313 31.0768 183.108 30.9237C182.903 30.7706 182.673 30.6551 182.419 30.5771C182.168 30.4991 181.9 30.4601 181.617 30.4601C181.106 30.4601 180.648 30.5886 180.244 30.8457C179.843 31.1028 179.525 31.4797 179.291 31.9765C179.06 32.4732 178.944 33.0798 178.944 33.7961C178.944 34.5181 179.06 35.1275 179.291 35.6243C179.525 36.1211 179.844 36.4966 180.248 36.7507C180.653 37.0049 181.108 37.132 181.613 37.132C181.893 37.132 182.159 37.0944 182.41 37.0194C182.664 36.9414 182.894 36.8273 183.099 36.6771C183.304 36.5269 183.477 36.3435 183.619 36.1269C183.763 35.9074 183.863 35.6561 183.918 35.373L185.27 35.3774C185.197 35.8135 185.057 36.215 184.849 36.5818C184.644 36.9457 184.38 37.2605 184.057 37.5262C183.736 37.7891 183.369 37.9927 182.956 38.1371C182.543 38.2815 182.092 38.3537 181.604 38.3537C180.836 38.3537 180.152 38.1718 179.551 37.8078C178.95 37.441 178.476 36.9168 178.13 36.2352C177.786 35.5536 177.614 34.7405 177.614 33.7961C177.614 32.8487 177.788 32.0357 178.134 31.3569C178.481 30.6753 178.954 30.1525 179.555 29.7886C180.156 29.4218 180.839 29.2384 181.604 29.2384C182.075 29.2384 182.514 29.3063 182.921 29.442C183.332 29.5749 183.7 29.7713 184.026 30.0312C184.353 30.2883 184.623 30.6031 184.836 30.9757C185.05 31.3454 185.194 31.7685 185.27 32.2451ZM203.015 38.2324V29.3597H208.578V30.5121H204.354V33.2155H208.288V34.3636H204.354V37.08H208.63V38.2324H203.015Z" fill="#011646"/>
<path fill-rule="evenodd" clip-rule="evenodd" d="M6.19995 0.486328C2.88624 0.486328 0.199951 2.48993 0.199951 4.96149V33.6025C0.199951 36.0741 2.88624 38.0777 6.19995 38.0777H9.79995V5.85652L17 12.1217L25.4 19.7295L33.7999 12.1217L41 5.85652V38.0777H44.6C47.9137 38.0777 50.6 36.0741 50.6 33.6025V4.96149C50.6 2.48993 47.9137 0.486328 44.6 0.486328H6.19995ZM33.7999 38.0777V21.5196L25.4 28.3815L17 21.5196L17 38.0777L16.9999 42.5528L21.5 38.0777H33.7999Z" fill="#F6C745"/>
<path d="M18.2 5.85645H32.6L25.4 11.2266L18.2 5.85645Z" fill="black" fill-opacity="0.3"/>
</svg>
