<svg width="249" height="47" viewBox="0 0 249 47" fill="none" xmlns="http://www.w3.org/2000/svg">
<path d="M62.4595 -7.15256e-07H68.7173L75.3267 16.125H75.608L82.2173 -7.15256e-07H88.4752V24H83.5533V8.37891H83.3541L77.1431 23.8828H73.7916L67.5806 8.32031H67.3814V24H62.4595V-7.15256e-07ZM96.7925 24H91.355L99.6402 -7.15256e-07H106.179L114.453 24H109.015L103.003 5.48437H102.816L96.7925 24ZM96.4527 14.5664H109.296V18.5273H96.4527V14.5664ZM137.416 -7.15256e-07V24H133.033L122.591 8.89453H122.416V24H117.341V-7.15256e-07H121.794L132.154 15.0937H132.365V-7.15256e-07H137.416ZM146.682 -7.15256e-07V24H141.608V-7.15256e-07H146.682ZM150.857 24V-7.15256e-07H155.931V19.8164H166.22V24H150.857ZM169.581 24V-7.15256e-07H174.655V19.8164H184.944V24H169.581ZM193.053 24H187.616L195.901 -7.15256e-07H202.44L210.713 24H205.276L199.264 5.48437H199.077L193.053 24ZM192.713 14.5664H205.557V18.5273H192.713V14.5664Z" fill="white"/>
<path d="M61.3484 41V32.1273H66.8505V33.2797H62.6871V35.9831H66.4563V37.1312H62.6871V41H61.3484ZM85.9791 32.1273V41H84.6404V32.1273H85.9791ZM111.234 32.1273V41H110.003L105.493 34.4928H105.411V41H104.072V32.1273H105.311L109.826 38.6432H109.908V32.1273H111.234ZM130.08 41H128.659L131.851 32.1273H133.398L136.591 41H135.17L132.662 33.7389H132.592L130.08 41ZM130.318 37.5254H134.927V38.6518H130.318V37.5254ZM161.177 32.1273V41H159.947L155.437 34.4928H155.355V41H154.016V32.1273H155.255L159.769 38.6432H159.852V32.1273H161.177ZM186.643 35.0126H185.291C185.239 34.7238 185.143 34.4696 185.001 34.2501C184.86 34.0306 184.686 33.8443 184.481 33.6913C184.276 33.5382 184.047 33.4227 183.792 33.3447C183.541 33.2667 183.274 33.2277 182.991 33.2277C182.48 33.2277 182.022 33.3562 181.618 33.6133C181.216 33.8703 180.898 34.2473 180.664 34.744C180.433 35.2408 180.318 35.8473 180.318 36.5636C180.318 37.2857 180.433 37.8951 180.664 38.3919C180.898 38.8887 181.218 39.2642 181.622 39.5183C182.026 39.7725 182.481 39.8996 182.987 39.8996C183.267 39.8996 183.533 39.862 183.784 39.7869C184.038 39.7089 184.268 39.5949 184.473 39.4447C184.678 39.2945 184.851 39.1111 184.993 38.8945C185.137 38.675 185.237 38.4237 185.291 38.1406L186.643 38.145C186.571 38.5811 186.431 38.9826 186.223 39.3494C186.018 39.7133 185.754 40.0281 185.43 40.2938C185.109 40.5567 184.743 40.7603 184.33 40.9047C183.917 41.0491 183.466 41.1213 182.978 41.1213C182.21 41.1213 181.525 40.9393 180.924 40.5754C180.324 40.2086 179.85 39.6844 179.503 39.0028C179.16 38.3211 178.988 37.5081 178.988 36.5636C178.988 35.6163 179.161 34.8032 179.508 34.1245C179.854 33.4429 180.328 32.9201 180.929 32.5562C181.53 32.1894 182.213 32.006 182.978 32.006C183.449 32.006 183.888 32.0738 184.295 32.2096C184.705 32.3424 185.073 32.5388 185.4 32.7988C185.726 33.0558 185.996 33.3707 186.21 33.7433C186.424 34.1129 186.568 34.5361 186.643 35.0126ZM204.389 41V32.1273H209.951V33.2797H205.727V35.9831H209.661V37.1312H205.727V39.8476H210.003V41H204.389Z" fill="white"/>
<path fill-rule="evenodd" clip-rule="evenodd" d="M6.5348 0C3.15589 0 0.416748 2.23858 0.416748 5V37C0.416748 39.7614 3.1559 42 6.5348 42H10.2055V6L17.5472 13L26.1125 21.5L34.6778 13L42.0194 6V42H45.6904C49.0693 42 51.8084 39.7614 51.8084 37V5C51.8084 2.23858 49.0693 0 45.6904 0H6.5348ZM34.6778 42V23.5L26.1125 31.1667L17.5472 23.5V42H17.5473L17.5473 47L22.1358 42H34.6778Z" fill="#F6C745"/>
<path d="M18.7708 6H33.4541L26.1125 12L18.7708 6Z" fill="black" fill-opacity="0.3"/>
</svg>
